<?xml version="1.0" encoding="utf-8"?>
<!-- Generator: Adobe Illustrator 14.0.0, SVG Export Plug-In . SVG Version: 6.00 Build 43363)  -->
<!DOCTYPE svg PUBLIC "-//W3C//DTD SVG 1.1 Tiny//EN" "http://www.w3.org/Graphics/SVG/1.1/DTD/svg11-tiny.dtd">
<svg version="1.1" baseProfile="tiny" id="layer1" xmlns="http://www.w3.org/2000/svg" xmlns:xlink="http://www.w3.org/1999/xlink"
	 x="0px" y="0px" width="77.751px" height="51.834px" viewBox="38.876 25.917 77.751 51.834" xml:space="preserve">
<g id="zzz">
	<path fill="none" d="M106.27,38.969c0.354-0.004,0.705-0.01,1.055-0.017C106.975,38.958,106.623,38.965,106.27,38.969z"/>
	<path fill="none" d="M107.581,38.948c0.315-0.006,0.627-0.014,0.938-0.022C108.208,38.934,107.897,38.942,107.581,38.948z"/>
	<path fill="none" d="M104.94,38.981c0.364-0.002,0.727-0.006,1.088-0.01C105.667,38.975,105.305,38.979,104.94,38.981z"/>
	<path fill="none" d="M70.372,40.598c-0.01,0.009-0.021,0.013-0.031,0.02C70.352,40.611,70.362,40.606,70.372,40.598z"/>
	<path fill="none" d="M104.79,38.981c-12.359,0.063-26.521-0.892-35.759,0.674l0,0C78.27,38.089,92.432,39.043,104.79,38.981z"/>
	<path fill="none" d="M110.147,38.875c-0.42,0.016-0.844,0.03-1.271,0.042C109.303,38.905,109.727,38.891,110.147,38.875z"/>
	<path fill="none" d="M69.271,39.81c0.015,0.014,0.03,0.027,0.045,0.043C69.301,39.837,69.286,39.823,69.271,39.81z"/>
	<path fill="none" d="M70.185,40.665c-0.013-0.001-0.025-0.004-0.038-0.006C70.16,40.661,70.173,40.664,70.185,40.665z"/>
	<path fill="none" d="M70.28,40.652c-0.011,0.004-0.024,0.005-0.036,0.007C70.256,40.658,70.268,40.656,70.28,40.652z"/>
	<path fill="none" d="M69.219,39.764c-0.016-0.013-0.031-0.024-0.047-0.036C69.188,39.74,69.204,39.75,69.219,39.764z"/>
	<path fill="none" d="M69.125,39.696c-0.018-0.011-0.036-0.017-0.054-0.024C69.089,39.678,69.107,39.685,69.125,39.696z"/>
	<path fill="none" d="M69.411,39.956c-0.013-0.016-0.027-0.03-0.04-0.045C69.385,39.925,69.398,39.94,69.411,39.956z"/>
	<path fill="none" d="M70.088,40.639c-0.013-0.005-0.024-0.011-0.037-0.017C70.063,40.628,70.075,40.634,70.088,40.639z"/>
	<path fill="none" d="M69.88,40.491c-0.008-0.007-0.016-0.014-0.024-0.022C69.864,40.477,69.872,40.484,69.88,40.491z"/>
	<path fill="none" d="M69.493,40.051c-0.006-0.007-0.012-0.015-0.018-0.022C69.481,40.036,69.487,40.043,69.493,40.051z"/>
	<path fill="none" d="M69.987,40.581c-0.011-0.008-0.022-0.016-0.034-0.024C69.965,40.565,69.976,40.573,69.987,40.581z"/>
	<path fill="#FCFFFF" d="M55.073,26.322c0-0.135,0-0.27,0-0.405h-4.049c0,0.135,0,0.271,0,0.405
		C52.374,26.322,53.723,26.322,55.073,26.322z"/>
	<path fill="#FEFFFC" d="M57.098,26.322c0.839-0.241,2.661,0.5,2.834-0.405h-4.859c0,0.135,0,0.271,0,0.405
		C55.749,26.322,56.424,26.322,57.098,26.322z"/>
	<path fill="#FBFFFB" d="M80.99,26.322c-2.159,0-4.319,0-6.479,0c0,0.135,0,0.27,0,0.405c2.16,0,4.32,0,6.479,0
		C80.99,26.592,80.99,26.457,80.99,26.322z"/>
	<path fill="#2861BD" d="M55.073,28.346c0-0.135,0-0.27,0-0.405c-1.08,0-2.159,0-3.239,0c0,0.135,0,0.271,0,0.405
		c0.588,0.222,2.093-0.473,2.024,0.405c0.405,0,0.81,0,1.215,0C55.073,28.616,55.073,28.481,55.073,28.346z"/>
	<path fill="#285EC3" d="M76.536,28.346c5.4,0,10.799,0,16.199,0c1.363-0.256,3.76,0.521,4.453-0.405c-1.079,0-2.159,0-3.239,0
		c-12.958,0-25.917,0-38.875,0c0,0.135,0,0.271,0,0.405C62.228,28.346,69.382,28.346,76.536,28.346z"/>
	<path fill="#6FA1DF" d="M68.032,29.156c0-0.135,0-0.27,0-0.405c-2.16,0-4.319,0-6.479,0c0,0.135,0,0.27,0,0.405
		c2.024,0,4.05,0,6.074,0C67.762,29.156,67.897,29.156,68.032,29.156z"/>
	<path fill="#7CAAE2" d="M68.032,28.751c0,0.135,0,0.27,0,0.405c2.7,0,5.399,0,8.099,0c1.08,0,2.16,0,3.24,0
		c1.619,0,3.238,0,4.859,0c0-0.135,0-0.27,0-0.405c-2.564,0-5.13,0-7.695,0C73.701,28.751,70.866,28.751,68.032,28.751z"/>
	<path fill="#6FA1DF" d="M84.23,28.751c0,0.135,0,0.27,0,0.405c0.81,0,1.62,0,2.429,0c2.43,0,4.86,0,7.29,0c0-0.135,0-0.27,0-0.405
		c-0.405,0-0.81,0-1.215,0C89.899,28.751,87.065,28.751,84.23,28.751z"/>
	<path fill="#6FA1DF" d="M59.933,29.156c-1.62,0-3.24,0-4.86,0c-0.675,0-1.35,0-2.024,0c0,0.135,0,0.27,0,0.405
		c0.588,0.222,2.093-0.473,2.024,0.405c0.27,0,0.54,0,0.81,0c1.485,0,2.97,0,4.455,0C60.339,29.56,60.01,29.484,59.933,29.156z"/>
	<path fill="#7CAAE2" d="M67.627,29.156c-2.024,0-4.05,0-6.074,0c-0.54,0-1.08,0-1.62,0c0.077,0.328,0.406,0.404,0.405,0.81
		c0.81,0,1.62,0,2.43,0c1.755,0,3.509,0,5.264,0C68.033,29.56,67.704,29.484,67.627,29.156z"/>
	<path fill="#8BB6E7" d="M68.032,29.966c2.16,0,4.32,0,6.479,0c0.945,0,1.89,0,2.834,0c-0.006-0.668-1.123-0.227-1.215-0.81
		c-2.7,0-5.399,0-8.099,0c-0.135,0-0.27,0-0.405,0C67.704,29.484,68.033,29.56,68.032,29.966z"/>
	<path fill="#9CBEE6" d="M77.345,29.966c0.27,0,0.54,0,0.81,0c0.007-0.668,1.124-0.227,1.216-0.81c-1.08,0-2.16,0-3.24,0
		C76.222,29.74,77.34,29.298,77.345,29.966z"/>
	<path fill="#8BB6E7" d="M78.156,29.966c1.351,0,2.7,0,4.05,0c1.756,0,3.51,0,5.264,0c-0.004-0.536-0.709-0.37-0.81-0.81
		c-0.81,0-1.619,0-2.429,0c-1.62,0-3.24,0-4.86,0C79.28,29.74,78.162,29.298,78.156,29.966z"/>
	<path fill="#7CAAE2" d="M87.469,29.966c1.62,0,3.24,0,4.86,0c0.54,0,1.079,0,1.62,0c0.006-0.668,1.123-0.227,1.215-0.81
		c-0.406,0-0.811,0-1.215,0c-2.43,0-4.86,0-7.29,0C86.76,29.596,87.465,29.431,87.469,29.966z"/>
	<path fill="#6FA1DF" d="M93.949,29.966c1.079,0,2.159,0,3.239,0c0.54,0,1.08,0,1.62,0c-0.29-1.1,1.908,0.29,1.619-0.81
		c-1.755,0-3.51,0-5.264,0C95.073,29.74,93.955,29.298,93.949,29.966z"/>
	<path fill="#6299D9" d="M62.768,29.966c-0.81,0-1.62,0-2.43,0c-1.485,0-2.97,0-4.455,0c0,0.135,0,0.27,0,0.405
		c2.295,0,4.589,0,6.885,0C62.768,30.236,62.768,30.101,62.768,29.966z"/>
	<path fill="#659DDE" d="M74.511,29.966c-2.16,0-4.319,0-6.479,0c-1.755,0-3.509,0-5.264,0c0,0.135,0,0.27,0,0.405
		c0.675,0,1.35,0,2.024,0c0.945,0,1.89,0,2.834,0c2.294,0,4.589,0,6.884,0C74.511,30.236,74.511,30.101,74.511,29.966z"/>
	<path fill="#6FA1DF" d="M74.511,29.966c0,0.135,0,0.27,0,0.405c2.564,0,5.129,0,7.694,0c0-0.135,0-0.271,0-0.405
		c-1.35,0-2.699,0-4.05,0c-0.27,0-0.54,0-0.81,0C76.401,29.966,75.456,29.966,74.511,29.966z"/>
	<path fill="#6299D9" d="M92.329,29.966c0,0.135,0,0.27,0,0.405c1.62,0,3.239,0,4.859,0c0-0.135,0-0.271,0-0.405
		c-1.079,0-2.159,0-3.239,0C93.408,29.966,92.869,29.966,92.329,29.966z"/>
	<path fill="#518ED7" d="M60.338,30.776c1.363-0.256,3.761,0.521,4.455-0.405c-0.675,0-1.35,0-2.024,0c-2.295,0-4.59,0-6.885,0
		c-0.27,0-0.54,0-0.81,0c0,0.135,0,0.27,0,0.405C57.671,30.786,58.005,31.03,60.338,30.776z"/>
	<path fill="#518ED7" d="M74.511,30.372c-2.295,0-4.589,0-6.884,0c5.671,0.675,14.171,0.675,19.842,0c-1.755,0-3.51,0-5.264,0
		C79.641,30.372,77.076,30.372,74.511,30.372z"/>
	<path fill="#518ED7" d="M90.709,30.372c1.896,0.938,5.529,0.139,8.1,0.405c0.838-0.241,2.659,0.5,2.834-0.405
		c-1.485,0-2.97,0-4.455,0c-1.619,0-3.239,0-4.859,0C91.789,30.372,91.25,30.372,90.709,30.372z"/>
	<path fill="#3878D4" d="M48.594,39.685c5.399,0,10.799,0,16.198,0c0-0.135,0-0.27,0-0.405
		C59.527,39.549,53.186,38.742,48.594,39.685z"/>
	<path fill="#FBFCFF" d="M64.792,40.495c-5.266,0.269-11.607-0.538-16.198,0.405C53.86,40.631,60.201,41.438,64.792,40.495z"/>
	<path fill="#FEFFF9" d="M58.313,42.52c-3.108,0.266-7.285-0.536-9.719,0.405C51.702,42.658,55.879,43.46,58.313,42.52z"/>
	<path fill="#FFFEFF" d="M90.709,47.379c3.512,0.942,8.771,0.136,12.959,0.405C100.156,46.842,94.896,47.647,90.709,47.379z"/>
	<path fill="#F9FFF7" d="M74.511,48.189c3.24,0,6.479,0,9.719,0c0-0.135,0-0.271,0-0.405C81.123,48.051,76.945,47.249,74.511,48.189
		z"/>
	<path fill="#FFFFFF" d="M97.188,49c-1.358-0.937-4.447-0.143-6.479-0.405C92.069,49.53,95.156,48.736,97.188,49z"/>
	<path fill="#FCFFFF" d="M90.709,49.809c2.159,0,4.319,0,6.479,0C95.959,49.136,91.938,49.136,90.709,49.809z"/>
	<path fill="#FEFFFC" d="M90.709,50.214c2.031-0.263,5.12,0.53,6.479-0.405c-2.159,0-4.319,0-6.479,0
		C90.709,49.944,90.709,50.079,90.709,50.214z"/>
	<path fill="#1454B8" d="M114.602,64.386c0-0.135,0-0.27,0-0.404c0-1.89,0-3.78,0-5.67c-0.136,0-0.27,0-0.406,0
		C114.459,60.21,113.667,63.162,114.602,64.386z"/>
	<path fill="#2260CA" d="M64.792,59.932c-2.032,0.263-5.12-0.53-6.479,0.405c3.239,0,6.479,0,9.719,0
		C67.731,59.424,65.76,60.179,64.792,59.932z"/>
	<path fill="#FFFEFF" d="M58.313,61.552c2.031-0.263,5.12,0.531,6.479-0.405C62.761,61.41,59.672,60.617,58.313,61.552z"/>
	<path fill="#316AC7" d="M106.906,62.363c2.16,0,4.32,0,6.48,0c0-0.136,0-0.27,0-0.405C111.355,62.22,108.267,61.427,106.906,62.363
		z"/>
	<path fill="#FFFEFF" d="M74.511,65.197c3.375,0,6.749,0,10.124,0c0-0.135,0-0.27,0-0.405C81.393,65.059,77.08,64.256,74.511,65.197
		z"/>
	<path fill="#FFFEFF" d="M90.709,65.197c4.319,0,8.639,0,12.959,0C100.289,64.523,94.088,64.523,90.709,65.197z"/>
	<path fill="#316AC7" d="M103.668,66.007c-4.32,0-8.64,0-12.959,0C94.088,66.681,100.289,66.681,103.668,66.007z"/>
	<path fill="#2C6BC9" d="M93.949,67.222c2.598,0.123,7.523,0.219,9.719-0.406c-2.16,0-4.32,0-6.479,0
		C92.598,66.749,88.758,66.975,93.949,67.222z"/>
	<path fill="#2263C1" d="M58.313,71.676c-2.16,0-4.32,0-6.479,0c-0.135,0-0.27,0-0.405,0C52.792,72.349,56.95,72.349,58.313,71.676z
		"/>
	<path fill="#2462C2" d="M93.139,72.082c1.35,0,2.699,0,4.05,0c0-0.136,0-0.271,0-0.406C95.957,71.929,93.7,71.158,93.139,72.082z"
		/>
	<path fill="#2263C1" d="M103.668,71.676c-1.08,0-2.16,0-3.24,0s-2.159,0-3.239,0c0,0.136,0,0.271,0,0.405
		C99.22,71.818,102.309,72.613,103.668,71.676z"/>
	<path fill="#2565C2" d="M80.99,72.082c-2.031,0.262-5.121-0.531-6.479,0.404C76.543,72.222,79.631,73.017,80.99,72.082z"/>
	<path fill="#2462C2" d="M100.428,72.486c0,0.405,0,0.811,0,1.215c2.434,0.408,3.455-0.594,5.264-0.81
		c-0.091-0.583-1.208-0.141-1.215-0.81c-0.135,0-0.27,0-0.404,0C103.401,72.759,101.696,72.404,100.428,72.486z"/>
	<path fill="#2160C3" d="M58.313,72.486c2.434,0.941,6.611,0.139,9.719,0.405c0-0.135,0-0.27,0-0.405
		C64.792,72.486,61.552,72.486,58.313,72.486z"/>
	<path fill="#225CBA" d="M64.792,74.106c1.08,0,2.16,0,3.239,0c6.479,0,12.959,0,19.438,0c1.08,0,2.16,0,3.24,0
		c-0.303-0.913-2.271-0.158-3.24-0.405c-6.479,0-12.958,0-19.438,0C67.064,73.948,65.094,73.193,64.792,74.106z"/>
	<path fill="#2C6BC9" d="M87.469,74.511c0.406,0,0.811,0,1.216,0c1.215,0,2.429,0,3.645,0c1.62,0,3.239,0,4.859,0
		c0-0.136,0-0.271,0-0.406c-2.159,0-4.319,0-6.479,0c-1.08,0-2.159,0-3.239,0C87.469,74.241,87.469,74.375,87.469,74.511z"/>
	<path fill="#5885CD" d="M62.363,74.916c0.27,0,0.54,0,0.81,0c1.08,0,2.16,0,3.239,0c0-0.135,0-0.27,0-0.404
		c-1.35,0-2.699,0-4.049,0C62.363,74.646,62.363,74.781,62.363,74.916z"/>
	<path fill="#769BD8" d="M80.99,74.511c-2.159,0-4.319,0-6.479,0c-0.074,0.344,0.158,0.382,0.405,0.404c2.025,0,4.049,0,6.074,0
		C80.99,74.781,80.99,74.646,80.99,74.511z"/>
	<path fill="#6C93D6" d="M80.99,74.916c0.54,0,1.08,0,1.619,0c0.84-0.24,2.66,0.501,2.835-0.404c-1.484,0-2.969,0-4.454,0
		C80.99,74.646,80.99,74.781,80.99,74.916z"/>
	<path fill="#608ED2" d="M86.659,75.321c-0.182-1.128,2.208,0.317,2.025-0.81c-0.405,0-0.81,0-1.216,0c-0.674,0-1.35,0-2.024,0
		c-0.175,0.905-1.995,0.164-2.835,0.405c-0.125,0.55-1.014,0.336-1.619,0.405c0,0.135,0,0.27,0,0.405c1.08,0,2.16,0,3.24,0
		C84.281,74.832,85.948,75.553,86.659,75.321z"/>
	<path fill="#4F7DC9" d="M63.173,75.321c-1.08,0-2.16,0-3.239,0c0,0.136,0,0.271,0,0.405c1.62,0,3.239,0,4.859,0
		c0-0.135,0-0.27,0-0.405C64.253,75.321,63.713,75.321,63.173,75.321z"/>
	<path fill="#5885CD" d="M68.032,75.321c-1.08,0-2.16,0-3.239,0c0,0.136,0,0.271,0,0.405c2.16,0,4.319,0,6.479,0
		C70.97,74.812,69.001,75.568,68.032,75.321z"/>
	<path fill="#5885CD" d="M86.659,75.321c-0.712,0.233-2.379-0.489-2.429,0.405c2.159,0,4.319,0,6.479,0c0-0.135,0-0.27,0-0.405
		C89.36,75.321,88.01,75.321,86.659,75.321z"/>
	<path fill="#4F7DC9" d="M92.329,75.321c-0.54,0-1.079,0-1.62,0c0,0.136,0,0.271,0,0.405c1.35,0,2.699,0,4.05,0
		C94.709,74.832,93.041,75.553,92.329,75.321z"/>
	<path fill="#285EC3" d="M80.99,75.726c-2.025,0-4.049,0-6.074,0C76.012,76.398,79.895,76.398,80.99,75.726z"/>
	<path fill="#285EC3" d="M84.23,76.535c4.319,0,8.639,0,12.958,0C93.811,75.861,87.609,75.861,84.23,76.535z"/>
	<path fill="#FFFCFF" d="M46.975,26.322c-0.2,1.279,2.009,0.15,1.619,1.619c0.976,0.166,0.881-0.739,2.025-0.405
		c0.27,0,0.54,0,0.81,0c0.023-0.247,0.061-0.479,0.405-0.405c-0.005-0.535-0.709-0.37-0.81-0.81c0-0.135,0-0.27,0-0.405H47.38
		C47.357,26.164,47.319,26.396,46.975,26.322z"/>
	<path fill="#FFFFFF" d="M91.114,26.727c-3.374,0-6.748,0-10.123,0c-2.159,0-4.319,0-6.479,0c-5.399,0-10.799,0-16.198,0
		c0,0.135,0,0.27,0,0.405c11.878,0,23.757,0,35.636,0c1.365-1.333,6.135,0.736,6.884-1.215H80.99c0,0.135,0,0.271,0,0.405
		C84.233,26.589,88.545,25.786,91.114,26.727z"/>
	<path fill="#FFFFFF" d="M108.528,25.917c0.123,1.068-0.846,1.045-1.621,1.215c0.023,0.517,0.52,0.561,0.406,1.215
		c0.09,0.316,0.339,0.471,0.81,0.405c0.082-1.126,0.438-2.437,2.024-1.215c0.107,0.832-0.922,0.344-1.215,1.62
		c1.425,1.545,3.176,2.764,4.05,4.859c0.271,0,0.54,0,0.81,0c0.166-0.69,0.523,0.085,1.215,0c0.654,1.236,1.07,2.71,1.621,4.049
		V25.917H108.528z"/>
	<path fill="#FFFEFF" d="M58.313,26.727c-0.477-0.063-1.149,0.069-1.215-0.405c-0.675,0-1.349,0-2.024,0c-1.35,0-2.699,0-4.049,0
		c0.101,0.439,0.805,0.274,0.81,0.81c2.159,0,4.319,0,6.479,0C58.313,26.997,58.313,26.862,58.313,26.727z"/>
	<path fill="#659DDE" d="M98.809,29.966c3.196-0.355,7.336,0.483,8.908,0.405c-1.021-0.733-2.121-1.389-4.049-1.215
		c-1.08,0-2.16,0-3.24,0C100.717,30.256,98.519,28.867,98.809,29.966z"/>
	<path fill="#5A94DE" d="M98.809,29.966c-0.54,0-1.08,0-1.62,0c0,0.135,0,0.27,0,0.405c1.485,0,2.97,0,4.454,0
		c1.404,0.216,3.842-0.602,4.05,0.81c2.01-0.244,3.319,1.475,3.239,0c-0.105-0.569-0.888-0.461-1.215-0.81
		C106.145,30.45,102.004,29.611,98.809,29.966z"/>
	<path fill="#5090D9" d="M55.073,30.372c-2.1,0.194-5.025-0.437-6.479,0.405c0,0.135,0,0.27,0,0.405
		c0.766,0.091,0.894-0.456,1.62-0.405c-0.097,0.578-0.667,0.683-0.81,1.215c2.208,0.183,3.328-0.722,5.669-0.405
		c0-0.271,0-0.54,0-0.81C55.073,30.641,55.073,30.506,55.073,30.372z"/>
	<path fill="#4E8CD7" d="M42.52,35.636c3.221-1.157,0.287-0.303,4.859,0c12.502,0.831,33.275,0,48.593,0
		c3.979,0,14.375,0.855,14.578-1.215c-4.089-2.572-9.719-1.619-14.982-1.619c-16.854,0-35.022,0.331-50.619-0.405
		c-0.543,1.776-0.781,1.354-2.429,2.024c-0.247,0.023-0.479,0.061-0.405,0.405C42.206,35.14,42.126,35.625,42.52,35.636z"/>
	<path fill="#225CBA" d="M103.262,27.537c0,0.135,0,0.27,0,0.405c1.486,0.873-2.264-0.151-2.023,0.81
		c0.711,0.233,2.379-0.489,2.43,0.405c1.928-0.174,3.027,0.481,4.049,1.215c0.326,0.349,1.109,0.241,1.215,0.81
		c1.282,0.877,2.35,1.97,2.835,3.645c0.798,0.687,1.087,1.883,1.215,3.24c0.136,0,0.271,0,0.405,0
		c0.174-1.377,0.872,1.775,0.81-0.405c-0.032-1.587-0.714-2.526-1.215-3.645c-0.874-2.095-2.625-3.314-4.05-4.859
		c-0.314-0.091-0.799-0.011-0.81-0.405c-0.471,0.066-0.72-0.089-0.81-0.405c-1.458,0.108-1.951-0.748-3.24-0.81
		C103.803,27.537,103.532,27.537,103.262,27.537z"/>
	<path fill="#518ED7" d="M105.692,31.181c-1.91-0.626-1.705-0.259-1.619,0.405c-7-0.251-13.174,0.325-19.843,0.405
		c-4.25-0.168-9.689-0.973-13.768,0c-5.304,0.039-9.831-0.698-15.388-0.405c-2.342-0.317-3.462,0.587-5.669,0.405
		c0.143-0.532,0.713-0.637,0.81-1.215c-0.727-0.051-0.854,0.496-1.62,0.405c0-0.135,0-0.27,0-0.405
		c-0.696,0.125,0.526,1.406-1.215,1.215c0.005-0.535,0.709-0.37,0.81-0.81c-1.385,0.371-2.901,0.608-4.05,1.215
		c-0.919,0.295-1.211,1.219-1.62,2.024c1.649-0.67,1.886-0.248,2.429-2.024c15.597,0.736,33.765,0.405,50.619,0.405
		c5.263,0,10.894-0.953,14.982,1.619c1.197-0.351,0.104,2.182,1.215,0.405c-0.484-1.674-1.551-2.767-2.834-3.645
		C109.012,32.656,107.701,30.937,105.692,31.181z"/>
	<path fill="#4C8AD5" d="M110.551,34.42c-0.203,2.071-10.599,1.215-14.578,1.215c-15.318,0-36.091,0.831-48.593,0
		c-4.573-0.303-1.639-1.157-4.859,0c-0.394-0.011-0.314-0.496-0.405-0.81c-0.135,0-0.27,0-0.405,0c0,0.54,0,1.08,0,1.62
		c2.829,1.429,10.839,0.81,17.008,0.81c12.069,0,21.808,0,34.017,0c4.809,0,14.639-1.556,17.412,0c0.23,0.129-0.177,1.394,0,1.62
		c0.135,0,0.27,0,0.404,0c0.234-0.712-0.488-2.379,0.406-2.429c-0.537,2.35,1.688-0.502,0.81,1.215
		c0.063,0.477-0.069,1.15,0.405,1.215c0.09-0.315,0.339-0.471,0.81-0.405c0-0.135,0-0.27,0-0.405
		c-0.128-1.356-0.417-2.552-1.215-3.239C110.656,36.602,111.748,34.069,110.551,34.42z"/>
	<path fill="#FCFFFF" d="M114.602,39.685c1.089,0.279,0.782-0.837,1.215-1.215c-0.069-1.146,0.348-2.778-0.811-2.834
		c-0.09,0.314-0.011,0.799-0.404,0.81c0.193-1.274-0.576-1.583-0.811-2.43c-0.27,0-0.539,0-0.81,0
		c0.501,1.119,1.183,2.057,1.215,3.645C115.074,37.592,114.379,39.097,114.602,39.685z"/>
	<path fill="#4989D5" d="M111.767,37.66c0.878-1.717-1.347,1.135-0.81-1.215c-0.895,0.05-0.172,1.718-0.406,2.429
		c0.137,0,0.271,0,0.406,0C111.625,38.869,111.184,37.751,111.767,37.66z"/>
	<path fill="#4A86D3" d="M108.52,38.926c-0.312,0.008-0.623,0.016-0.938,0.022c-0.085,0.001-0.171,0.002-0.257,0.004
		c-0.35,0.007-0.701,0.013-1.055,0.017c-0.08,0.001-0.161,0.001-0.241,0.002c-0.361,0.004-0.724,0.007-1.089,0.01
		c-0.05,0-0.1,0-0.149,0c-12.358,0.063-26.521-0.893-35.759,0.673c0.013,0.003,0.026,0.011,0.04,0.016
		c0.018,0.008,0.036,0.014,0.054,0.025c0.016,0.009,0.032,0.021,0.048,0.033s0.032,0.021,0.047,0.035
		c0.017,0.014,0.034,0.03,0.052,0.046c0.015,0.014,0.03,0.028,0.045,0.043c0.018,0.019,0.037,0.038,0.055,0.058
		c0.013,0.015,0.027,0.03,0.041,0.045c0.021,0.024,0.042,0.048,0.063,0.073c0.006,0.007,0.012,0.015,0.018,0.022
		c0.121,0.145,0.243,0.299,0.363,0.418c0.008,0.008,0.016,0.015,0.024,0.022c0.024,0.023,0.049,0.045,0.074,0.065
		c0.011,0.009,0.022,0.017,0.033,0.024c0.021,0.016,0.042,0.029,0.063,0.041c0.013,0.007,0.024,0.012,0.037,0.018
		c0.02,0.009,0.04,0.015,0.06,0.02c0.012,0.002,0.025,0.005,0.038,0.006c0.02,0.002,0.04,0,0.058-0.004
		c0.012-0.002,0.025-0.003,0.036-0.007c0.021-0.008,0.042-0.021,0.062-0.035c0.01-0.007,0.021-0.011,0.031-0.02
		c0.03-0.026,0.06-0.06,0.09-0.103c-0.139-1.643,2.069-0.435,2.834-0.405c12.061,0.472,25.506-0.357,36.85,0
		c0.023-0.518,0.52-0.561,0.405-1.215c-0.135,0-0.271,0-0.405,0c-0.42,0.016-0.844,0.03-1.271,0.042
		C108.758,38.92,108.638,38.923,108.52,38.926z"/>
	<path fill="#FFFEFF" d="M114.602,39.685c0,0.135,0,0.271,0,0.405c0.943,5.266,0.135,12.282,0.404,18.223
		c0.473,0.068,0.44,0.64,0.405,1.215c0.374,3.989,0.372-1.101,0.405-3.239c0.047-2.901-0.037-6.256,0-7.694
		c-0.152-4.162,0.023-7.718,0-10.124C115.384,38.848,115.69,39.964,114.602,39.685z"/>
	<path fill="#4989D5" d="M45.76,39.685c0.091-0.313,0.011-0.799,0.405-0.81c0.828,1.715,0.427,0.253,1.62,0.81
		c0.135,0,0.27,0,0.405,0c3.799-1.603,12.133-0.822,16.603-0.405c0,0.135,0,0.27,0,0.405c0.945,0,1.89,0,2.834,0
		c-0.07-1.706,0.906-0.277,1.215,0c0.062-0.041,0.125-0.047,0.189-0.03c9.239-1.565,23.4-0.611,35.759-0.674c0.05,0,0.1,0,0.149,0
		c0.365-0.002,0.728-0.006,1.089-0.01c0.08-0.001,0.161-0.001,0.241-0.002c0.354-0.004,0.705-0.011,1.055-0.017
		c0.086-0.001,0.172-0.002,0.257-0.004c0.315-0.006,0.627-0.014,0.938-0.022c0.118-0.003,0.238-0.006,0.356-0.009
		c0.427-0.012,0.851-0.025,1.271-0.042c-0.176-0.226,0.23-1.49,0-1.62c-2.773-1.556-12.604,0-17.412,0c-12.208,0-21.947,0-34.016,0
		c-6.168,0-14.178,0.619-17.008-0.81c-0.6,0.075-0.372,0.979-0.405,1.619c0,0.135,0,0.271,0,0.405
		C42.212,39.453,45.416,38.14,45.76,39.685z"/>
	<path fill="#4785D3" d="M110.147,40.09c-11.344-0.357-24.789,0.472-36.851,0c-0.766-0.03-2.973-1.238-2.834,0.405
		c12.32,0.693,29.518,0.645,40.496,0c0.068,0.606-0.146,1.495,0.404,1.62c0.699-0.246-0.031-1.921,0.811-2.024
		c-0.092-0.314-0.012-0.799-0.406-0.81c0.303,1.475-1.111,0.482-0.809-0.405c-0.137,0-0.271,0-0.406,0
		C110.666,39.529,110.169,39.572,110.147,40.09z"/>
	<path fill="#4584D3" d="M112.576,40.9c-0.091-0.314-0.011-0.799-0.404-0.81c-0.842,0.104-0.111,1.779-0.811,2.024
		c-0.55-0.125-0.336-1.014-0.404-1.62c-10.978,0.645-28.177,0.693-40.496,0c-0.03,0.043-0.06,0.077-0.09,0.103
		c-0.01,0.009-0.021,0.013-0.031,0.02c-0.021,0.014-0.041,0.028-0.062,0.035c-0.012,0.004-0.024,0.005-0.036,0.007
		c-0.02,0.003-0.039,0.006-0.058,0.004c-0.013-0.001-0.025-0.003-0.038-0.006c-0.02-0.004-0.04-0.011-0.06-0.02
		c-0.013-0.005-0.024-0.011-0.037-0.018c-0.021-0.011-0.042-0.025-0.063-0.041c-0.011-0.008-0.022-0.016-0.034-0.024
		c-0.024-0.02-0.049-0.042-0.073-0.065c-0.008-0.007-0.016-0.014-0.024-0.022c-0.121-0.119-0.242-0.274-0.363-0.418
		c-0.006-0.007-0.012-0.015-0.018-0.022c-0.021-0.025-0.042-0.049-0.063-0.073c-0.013-0.016-0.027-0.03-0.04-0.045
		c-0.019-0.02-0.037-0.039-0.055-0.058c-0.015-0.015-0.03-0.029-0.045-0.043c-0.017-0.016-0.034-0.031-0.052-0.046
		c-0.016-0.013-0.031-0.024-0.047-0.035s-0.032-0.023-0.048-0.033c-0.018-0.01-0.036-0.017-0.054-0.025
		c-0.013-0.005-0.026-0.013-0.04-0.016l0,0c-0.064-0.017-0.128-0.01-0.189,0.031c-0.308-0.278-1.285-1.707-1.215,0
		c0.315,0.089,0.47,0.339,0.405,0.81c0.247,0.023,0.479,0.061,0.405,0.405c1.099-0.29-0.29,1.909,0.81,1.62
		c0.221-0.589-0.473-2.093,0.405-2.025c0.37,0.71,0.14,2.021,0.81,2.43c11.912-0.927,28.997-0.148,42.925-0.405
		c0-1.485,0-2.969,0-4.454c-0.136,0-0.271,0-0.406,0c0,0.135,0,0.27,0,0.405C112.748,39.182,113.471,40.849,112.576,40.9z"/>
	<path fill="#FEFFFC" d="M113.791,34.016c0.234,0.847,1.004,1.156,0.811,2.43c0.393-0.011,0.314-0.496,0.404-0.81
		c1.158,0.057,0.741,1.689,0.811,2.834c0.022,2.407-0.152,5.961,0,10.124c1.199-1.229-0.391-5.25,0.811-6.479v-4.05
		c-0.552-1.339-0.967-2.813-1.621-4.049C114.314,34.101,113.957,33.325,113.791,34.016z"/>
	<path fill="#FEFFF9" d="M48.594,40.9c-0.135,0-0.27,0-0.405,0c0,0.405,0,0.81,0,1.215c0.135,0,0.27,0,0.405,0
		c0-0.135,0-0.27,0-0.405c4.591-0.942,10.933-0.136,16.198-0.405c0.315-0.089,0.471-0.339,0.405-0.81c-0.135,0-0.27,0-0.405,0
		C60.201,41.438,53.86,40.631,48.594,40.9z"/>
	<path fill="#F9FFF7" d="M48.594,41.709c5.399,0,10.799,0,16.198,0c0,0.135,0,0.271,0,0.405c1.215,0.692,0.45,1.474,0.405,2.834
		c0.833-0.812,1.499-1.5,0.81-2.834c-0.696,0.021-1.038-0.312-1.215-0.81C59.527,41.574,53.186,40.767,48.594,41.709z"/>
	<path fill="#4584D3" d="M45.76,41.709c-0.295,1.774,0.805-0.326,0.81,0.811c-0.119,0.248-1.007,1.559,0,1.619
		c0.173-0.771,0.873-1.018,0.81-2.024c-0.583-0.227-0.988-0.632-1.215-1.215c-1.35,0-2.7,0-4.05,0
		c-0.063,0.477,0.07,1.149-0.405,1.215c0,0.27,0,0.54,0,0.81C42.546,42.006,45.469,43.174,45.76,41.709z"/>
	<path fill="#4482D1" d="M70.462,42.925c-0.67-0.409-0.44-1.719-0.81-2.43c-0.878-0.068-0.184,1.437-0.405,2.025
		c-1.1,0.29,0.289-1.909-0.81-1.62c-0.11,0.867,0.313,4.32-0.405,3.24c-0.135,0-0.27,0-0.405,0
		c-0.023,0.247-0.061,0.479-0.405,0.405c0,0.135,0,0.271,0,0.405c0.6,0.075,0.372,0.979,0.405,1.62
		c1.439,0.629,0.245-1.375,1.215-1.215c0.197-0.479,0.432-0.918,0.81-1.215c0.039,0.637-0.054,1.404,0.81,1.215
		c0.063-0.477-0.069-1.149,0.405-1.215c13.364,0.945,28.481,0.136,42.521,0.405c0-0.675,0-1.35,0-2.024
		C99.459,42.777,82.374,41.998,70.462,42.925z"/>
	<path fill="#FFFEFF" d="M59.933,42.52c-0.54,0-1.08,0-1.62,0c-2.434,0.94-6.611,0.138-9.719,0.405c0,0.135,0,0.27,0,0.405
		c4.228,0.043,8.444,0.074,12.148-0.405c0.936-0.684,2.191-1.049,4.05-0.81c0-0.135,0-0.27,0-0.405c-5.399,0-10.799,0-16.198,0
		c0,0.135,0,0.271,0,0.405C52.241,42.382,56.96,41.578,59.933,42.52z"/>
	<path fill="#FFFFFF" d="M64.792,42.115c-1.859-0.239-3.114,0.125-4.05,0.81c0.051,1.013,0.772,1.268-0.405,1.62
		c0,0.271,0,0.54,0,0.811c0.606,0.069,1.495-0.145,1.62,0.405c-0.865,0.112-1.945,2.062-1.215,2.429c0.098-1.044,0.697,0.556,1.62,0
		c-0.06-1.004-0.076-1.965,0.81-2.024c0,0.271,0,0.54,0,0.811c2.468,0.262-0.19,1.385,0,2.834c0.893-0.997,2.003-1.776,2.43-3.239
		c-1.655,0.122,0.068-0.561-0.405-1.62C65.242,43.589,66.007,42.807,64.792,42.115z"/>
	<path fill="#4181D0" d="M42.52,46.569c2.896-0.782,10.777,0.293,12.958,0.81c-0.302-1.247,1.111-0.778,0.81-2.025
		c-1.429,0.016-5.783,0.352-7.694-0.405c-0.135,0-0.27,0-0.405,0c-0.135,0-0.27,0-0.405,0c-1.607-0.688-4.585-0.004-6.074-0.81
		c0,0.81,0,1.62,0,2.43c0,0.405,0,0.81,0,1.215C42.366,47.731,41.953,46.722,42.52,46.569z"/>
	<path fill="#3C79CE" d="M64.792,52.643c3.406,0.239,7.785-0.496,10.529,0.405c1.017-0.598,2.083-1.37,2.43,0.405
		c0.578-0.097,0.683-0.667,1.214-0.81c0.238-0.843,0.852-1.309,1.215-2.025c-0.809,0-1.619,0-2.429,0
		c-0.958,0.932-3.635,0.145-5.265,0.405c-0.422,1.626-2.05-0.002-1.62-1.62c-0.759,1.029-0.86,0.186-1.619,1.215
		c-0.197-0.479-0.432-0.918-0.81-1.215c-0.063,0.477,0.07,1.149-0.405,1.215c0.1-1.556-3.479-0.773-4.049-0.405
		c0,0.135,0,0.27,0,0.405C65.343,50.203,64.613,51.878,64.792,52.643z"/>
	<path fill="#487FD3" d="M66.007,46.569c0.366,1.355,0.906,0.354,1.62,0c-0.034-0.641,0.195-1.544-0.405-1.62
		C66.39,45.063,66.414,46.031,66.007,46.569z"/>
	<path fill="#3F7DCF" d="M56.289,45.354c0.302,1.247-1.112,0.779-0.81,2.025c-2.182-0.517-10.063-1.593-12.958-0.81
		c-0.567,0.153-0.154,1.162-0.81,1.215c0.241,0.839-0.5,2.66,0.405,2.834c3.118-2.081,11.194,0.063,13.364-0.81
		c0.602-1.496,1.048-2.243,1.619-4.455C56.828,45.354,56.559,45.354,56.289,45.354z"/>
	<path fill="#FDFEF3" d="M63.173,46.974c0.411,1.975-1.31,1.803-0.405,3.24c0.135,0,0.27,0,0.405,0c0-0.135,0-0.27,0-0.405
		C62.983,48.36,65.64,47.236,63.173,46.974z"/>
	<path fill="#FFFEFF" d="M84.23,48.189c-3.239,0-6.479,0-9.719,0c2.434-0.94,6.611-0.138,9.719-0.405c0-0.135,0-0.27,0-0.405
		c-3.374,0-6.749,0-10.124,0c0,0.405,0,0.811,0,1.215c0.092,1.798,3.958-0.178,4.049,1.62c-1.23,0.254-3.488-0.519-4.049,0.405
		c1.215,0,2.429,0,3.645,0c0.81,0,1.619,0,2.429,0C79.58,48.27,82.324,48.959,84.23,48.189z"/>
	<path fill="#FCFFFF" d="M59.123,46.165c-0.783,1.376-1.56,2.76-2.834,3.645c-0.34,1.819-2.09,2.229-2.43,4.049
		c-0.018,0.558,0.19,0.89,0.405,1.216c0.093,0.718-0.408,2.028,0.81,1.619c0.091-0.314,0.011-0.799,0.405-0.81
		c0.063,0.477-0.07,1.149,0.405,1.215c-0.283-1.58,1.419-0.021,2.025,0c0.023-0.247,0.061-0.479,0.405-0.405
		c0.729-1.16,1.521-2.259,2.429-3.239c0.49-1.265,1.749-1.76,2.025-3.239c-0.905-1.437,0.815-1.265,0.405-3.239
		c0-0.271,0-0.54,0-0.811c-0.885,0.06-0.87,1.021-0.81,2.024c-0.923,0.556-1.522-1.044-1.62,0c-0.729-0.367,0.35-2.317,1.215-2.429
		c-0.125-0.549-1.014-0.336-1.62-0.405c-0.135,0-0.27,0-0.405,0C59.847,45.809,59.484,45.985,59.123,46.165z"/>
	<path fill="#FFFFFF" d="M80.585,54.668c0.448-0.938,3.091-3.223,3.239-0.811c1.016-0.334,1.281-1.418,2.025-2.024
		c0.096-0.578,0.666-0.683,0.809-1.215c0-0.54,0-1.08,0-1.619c-0.582,0.453-0.987,0.437-1.215-0.405
		c0.494-0.046,0.959-0.121,0.811-0.81c-0.675,0-1.35,0-2.025,0c0,0.135,0,0.27,0,0.405c-1.906,0.771-4.649,0.082-4.049,2.43
		c-0.364,0.716-0.979,1.183-1.215,2.024C79.723,53.1,80.916,53.123,80.585,54.668z"/>
	<path fill="#2861BD" d="M40.9,56.288c0-2.564,0-5.129,0-7.694c-0.135,0-0.27,0-0.405,0c-0.135,0-0.27,0-0.405,0
		c0,5.4,0,10.799,0,16.198c0.407,0.002,0.482-0.327,0.81-0.405c0-0.81,0-1.619,0-2.429C40.9,60.068,40.9,58.177,40.9,56.288z"/>
	<path fill="#FFFEFF" d="M90.709,48.594c2.031,0.263,5.12-0.531,6.479,0.405c0.248,0.022,0.48,0.061,0.406,0.405
		c-0.023,0.247-0.061,0.479-0.406,0.405c-1.358,0.935-4.447,0.142-6.479,0.405c-0.136,0-0.27,0-0.406,0c0,0.135,0,0.27,0,0.405
		c2.705,0.266,6.475-0.534,8.506,0.405c0.135,0,0.27,0,0.404,0c0.334-1.145-0.57-1.049-0.404-2.024
		c1.524-0.365,3.658-0.121,4.859-0.811c-4.455,0-8.91,0-13.365,0c0,0.135,0,0.271,0,0.405C90.44,48.594,90.574,48.594,90.709,48.594
		z"/>
	<path fill="#3C79CE" d="M112.172,50.214c-1.268-1.269-5.59-0.395-6.885,0.81c-0.274,0.94-1.346,1.084-1.619,2.024
		c0.135,0,0.27,0,0.404,0c0.805-0.005,0.516-1.104,1.619-0.81c0.031,0.706-0.09,1.26-0.404,1.619
		c0.406-0.001,0.482,0.328,0.81,0.405c0.091-0.314,0.011-0.799,0.405-0.81c1.824-1.54,4.354-0.509,6.074-0.81
		c0.055-0.754,0.266-1.354,0.81-1.62c0-0.675,0-1.35,0-2.024C112.621,49.043,113.106,50.337,112.172,50.214z"/>
	<path fill="#3F7DCF" d="M106.906,47.379c0,0.405,0,0.81,0,1.215c-0.518-0.022-0.561-0.519-1.215-0.405
		c-0.004,1.076,0.154,2.313-0.404,2.835c1.295-1.204,5.617-2.078,6.885-0.81c0.934,0.124,0.449-1.17,1.215-1.215
		c0-0.81,0-1.62,0-2.43c-2.16,0-4.32,0-6.48,0C106.906,46.839,106.906,47.109,106.906,47.379z"/>
	<path fill="#3479CE" d="M90.304,51.024c1.271,1.564,6.893-1.223,6.885,1.619c0.136,0,0.271,0,0.405,0
		c0.097-0.578,0.666-0.683,0.81-1.214C96.508,50.49,92.873,51.29,90.304,51.024z"/>
	<path fill="#3875CC" d="M112.172,54.263c-0.69-1.025-4.063-0.441-5.67,0c-1.155,1.051,2.396,0.82,3.645,0.81
		c0,0.405,0,0.81,0,1.215c0.675,0,1.35,0,2.025,0c0.695-0.519,0.008-2.421,1.215-2.43c0-0.27,0-0.539,0-0.81
		C112.452,52.925,112.937,54.218,112.172,54.263z"/>
	<path fill="#3C79CE" d="M86.659,50.619c-0.143,0.532-0.713,0.637-0.81,1.215c2.082-0.209,1.068-0.511,1.619,0.811
		c3.736,0.021,7.15-0.26,8.91,0.81c0.453-0.085,0.63-0.448,0.809-0.81c0.009-2.843-5.613-0.055-6.885-1.62c0-0.135,0-0.27,0-0.405
		c-0.764,0.045-0.28,1.339-1.215,1.215c-0.244-0.97-0.582-1.848-0.404-3.24c-1.697,0.482-0.723-1.707-1.619-2.025
		C86.811,47.8,87.584,50.057,86.659,50.619z"/>
	<path fill="#3378C4" d="M105.287,53.858c0.314-0.36,0.436-0.913,0.405-1.619c-1.104-0.295-0.815,0.805-1.62,0.81
		C104.178,53.618,104.961,53.51,105.287,53.858z"/>
	<path fill="#3A78CC" d="M86.659,54.668c0.271,0,0.54,0,0.81,0c0.887-1.308,7.381-1.528,7.695,0.405c0.135,0,0.27,0,0.404,0
		c0.211-0.6,0.6-1.021,0.811-1.62c-1.76-1.069-5.174-0.789-8.909-0.81c-0.552-1.322,0.464-1.02-1.619-0.811c0,0.811,0,1.62,0,2.43
		C86.164,54.354,86.649,54.274,86.659,54.668z"/>
	<path fill="#3875CC" d="M72.892,55.074c0,0.135,0,0.27,0,0.405c1.108,0.368-0.719,1.419,0.405,2.024c0.27,0,0.54,0,0.81,0
		c0.825-0.119,0.794-1.096,1.62-1.215c0.441-1.043,1.023-1.947,2.024-2.43c0-0.135,0-0.27,0-0.405
		c-0.347-1.775-1.413-1.003-2.43-0.405c1.597,2.443-12.127-0.563-12.553,1.215C64.76,55.91,70.747,54.822,72.892,55.074z"/>
	<path fill="#FCFFFF" d="M80.585,54.668c0.331-1.546-0.862-1.568-1.62-2.025c-0.531,0.144-0.636,0.713-1.214,0.81
		c0,0.136,0,0.271,0,0.405C77.807,55.016,79.44,54.599,80.585,54.668z"/>
	<path fill="#FFF9FF" d="M100.024,54.263c-0.797,0.121-0.804-0.547-1.215-0.811c-0.306,1.05-0.444,1.87,0.404,2.835
		c-0.719,0.093-2.027-0.407-1.619,0.81c0.602-0.637,1.809-0.45,1.619,0.811c0.135,0,0.27,0,0.404,0
		c0.212-0.599,0.6-1.021,0.811-1.62C99.55,56.356,100.244,54.852,100.024,54.263z"/>
	<path fill="#F3FEFE" d="M83.824,53.858c-0.148-2.413-2.791-0.128-3.238,0.811c0,0.136,0,0.27,0,0.405
		c0.377,0.432,1.494,0.125,1.215,1.215c0.934,0.124,0.449-1.17,1.215-1.215C83.112,54.496,83.682,54.39,83.824,53.858z"/>
	<path fill="#FCFFFF" d="M96.379,53.453c-0.211,0.6-0.6,1.021-0.811,1.62c-0.136,0-0.27,0-0.404,0c0,0.406-0.328,0.481-0.406,0.81
		c0,0.136,0,0.271,0,0.405c2.721-0.033-0.969,1.483,1.215,1.62c0.451-0.764,0.569-1.861,1.62-2.025
		c-0.059,0.479-0.721,0.918,0,1.215c-0.407-1.217,0.901-0.717,1.62-0.81c-0.849-0.965-0.711-1.785-0.406-2.835
		c-0.636-0.038-1.404,0.055-1.215-0.81c-0.135,0-0.27,0-0.404,0C97.009,53.004,96.833,53.368,96.379,53.453z"/>
	<path fill="#FBFBFC" d="M80.585,55.074c0-0.136,0-0.27,0-0.405c-1.146-0.069-2.778,0.348-2.834-0.811
		c-1.001,0.483-1.583,1.387-2.024,2.43c0.834,0.11,0.096,1.794,1.215,1.62c0.347-1.138,1.413-1.557,2.43-2.025
		c0.539,0.406,1.221,0.668,1.619,1.215c0.454-0.085,0.631-0.448,0.81-0.81C82.08,55.199,80.963,55.505,80.585,55.074z"/>
	<path fill="#3676CC" d="M61.552,56.693c2.466-0.703,7.647-0.634,10.124,0c0.934,0.125,0.45-1.17,1.215-1.215
		c0-0.135,0-0.27,0-0.405c-2.145-0.252-8.132,0.837-10.124-0.81c-0.518,0.021-0.561,0.52-1.215,0.405
		c0.059-0.479,0.721-0.918,0-1.216c-0.085,0.49-0.449,0.25-0.81,0c-0.909,0.981-1.701,2.079-2.429,3.24
		C60.239,56.5,60.532,57.49,61.552,56.693z"/>
	<path fill="#3674CA" d="M71.677,56.693c-2.476-0.634-7.658-0.703-10.124,0C64.743,56.613,69.802,56.804,71.677,56.693z"/>
	<path fill="#3572C9" d="M47.784,65.197c0.254-1.23-0.519-3.488,0.405-4.05c-0.001-0.406,0.328-0.481,0.405-0.81
		c-1.016-0.782,0.612-2.331,1.62-2.43c0.407,0.002,0.482-0.327,0.81-0.405c0.21-0.599,0.6-1.021,0.81-1.619
		c-1.062-0.758-1.394,0.272-2.834-0.405c0,0.271,0,0.54,0,0.81c-0.137,0.737-7.153,0.737-7.289,0c-0.135,0-0.27,0-0.405,0
		c0,0.676,0,1.351,0,2.025c0.135,0,0.27,0,0.405,0c0.315,0.089,0.47,0.339,0.405,0.81c1.267-0.083,2.973,0.273,3.645-0.405
		c0.25,1.351,1.188,1.383,0.405,2.835c0.27,0,0.54,0,0.81,0c0.038-0.636-0.055-1.404,0.81-1.215
		c-0.797,1.093-0.241,3.538-0.405,5.264c0.135,0,0.27,0,0.405,0C47.784,65.467,47.784,65.332,47.784,65.197z"/>
	<path fill="#3572C9" d="M91.52,59.123c0.559-1.64-0.88-1.281-0.811-2.43c-2.031-0.263-5.119,0.531-6.479-0.405
		c-1.439,0.63-0.244-1.375-1.216-1.215c-0.765,0.045-0.28,1.339-1.215,1.215c-0.179,0.361-0.355,0.725-0.81,0.81
		c-0.097,0.578-0.667,0.684-0.811,1.216c0.535,0.005,0.371,0.71,0.811,0.81c0.698-0.672,4.16-0.672,4.859,0c-0.27,0-0.539,0-0.81,0
		c-0.649,1.128,1.749,1.119,1.619,0.405c0.481-0.969,1.755,0.637,2.43,0.81c0.767,0.092,0.894-0.456,1.62-0.405
		C91.164,59.847,91.34,59.483,91.52,59.123z"/>
	<path fill="#FEFFF9" d="M53.859,57.908c0.464-1.273-0.636-0.984-0.81-1.62c0.432-0.378,0.126-1.493,1.215-1.215
		c-0.214-0.325-0.422-0.657-0.405-1.215c-0.578,0.097-0.683,0.667-1.215,0.81c0.021,0.697-0.312,1.038-0.81,1.215
		c-0.21,0.6-0.6,1.021-0.81,1.62C51.934,57.778,52.783,58.99,53.859,57.908z"/>
	<path fill="#FEFFF9" d="M76.941,57.908c0.105,0.63,0.888,0.281,1.214,0c0.364-0.717,0.978-1.182,1.216-2.025
		C78.354,56.351,77.288,56.77,76.941,57.908z"/>
	<path fill="#F9FFFF" d="M97.594,55.883c-1.052,0.164-1.17,1.261-1.621,2.024c0.316,0.09,0.471,0.34,0.406,0.811
		c1.834,0.302-0.619-1.112,1.215-0.811c0-0.27,0-0.539,0-0.81C96.873,56.801,97.535,56.362,97.594,55.883z"/>
	<path fill="#FFFCFF" d="M92.735,58.313c0.09,0.314,0.01,0.799,0.404,0.81c0.908-1.109,2.91,0.082,2.834-1.215
		c-2.184-0.137,1.506-1.654-1.215-1.62c0-0.135,0-0.27,0-0.405C93.948,56.556,92.876,56.97,92.735,58.313z"/>
	<path fill="#FFFEFF" d="M48.19,61.147c-0.924,0.562-0.151,2.819-0.405,4.05c6.479,0,12.958,0,19.438,0
		C63.362,62.853,45.963,68.414,48.19,61.147z"/>
	<path fill="#F9FFF7" d="M96.379,58.718c0.105,0.568,0.888,0.461,1.215,0.81c0.713-0.366,1.254-0.906,1.619-1.62
		c0.189-1.261-1.018-1.447-1.619-0.81c0,0.271,0,0.54,0,0.81C95.76,57.606,98.212,59.019,96.379,58.718z"/>
	<path fill="#FFFFFF" d="M84.635,64.792c0.919-0.431,0.154-2.545,0.405-3.645c-2.159,0-4.319,0-6.479,0c-0.27,0-0.54,0-0.81,0
		c0.097-0.577,0.667-0.683,0.81-1.215c0.022-0.518,0.52-0.561,0.405-1.215c-0.494-0.046-0.959-0.121-0.81-0.81
		c-0.326,0.281-1.109,0.63-1.214,0c-1.119,0.174-0.38-1.51-1.215-1.62c-0.826,0.119-0.794,1.096-1.62,1.215
		c-0.868,0.888-1.26,2.25-2.43,2.835c0.001,0.406-0.328,0.482-0.405,0.81c0,1.351,0,2.7,0,4.05c1.08,0,2.159,0,3.239,0
		C77.08,64.256,81.393,65.059,84.635,64.792z"/>
	<path fill="#346CD2" d="M48.594,60.337c0.46-0.89,1.354-1.346,1.62-2.43C49.206,58.006,47.578,59.554,48.594,60.337z"/>
	<path fill="#3170C9" d="M64.792,59.932c-1.964-1.141-6.787,0.578-7.694-1.619c-0.713,0.366-0.669,1.49-1.619,1.619
		c0,0.136,0,0.271,0,0.405c0.945,0,1.889,0,2.834,0C59.672,59.402,62.761,60.196,64.792,59.932z"/>
	<path fill="#3170C9" d="M78.561,59.932c-0.143,0.532-0.713,0.638-0.81,1.215c0.27,0,0.54,0,0.81,0
		c0.051-0.894,1.719-0.172,2.43-0.405c0.302-0.912,2.271-0.157,3.24-0.404c0.038-0.637-0.055-1.404,0.81-1.215
		c0.271,0,0.54,0,0.81,0c-0.698-0.672-4.16-0.672-4.859,0c-0.439-0.101-0.275-0.805-0.811-0.811
		C79.467,58.679,79.512,59.803,78.561,59.932z"/>
	<path fill="#3170C9" d="M71.272,59.123c-1.531,0.586-0.777-1.113-2.024-0.81c0.586,1.531-1.113,0.777-0.81,2.024
		c0,0.135,0,0.271,0,0.405c0.914,0.302,0.158,2.271,0.405,3.239c0.895-0.051,0.172-1.718,0.405-2.43
		c1.014,0.536,0.983-1.885,1.619-0.405c0.135,0,0.27,0,0.405,0c0.077-0.327,0.406-0.403,0.405-0.81
		C71.205,60.269,71.237,59.698,71.272,59.123z"/>
	<path fill="#FDFEF3" d="M96.379,58.718c0.064-0.471-0.09-0.721-0.406-0.811c0.076,1.297-1.926,0.106-2.834,1.216
		c-0.006,0.804-1.105,0.515-0.811,1.619c1.473,1.04,2.862,0.76,4.455,0c0.022-0.247,0.061-0.479,0.404-0.405
		c0-0.406,0.328-0.481,0.406-0.81C97.268,59.179,96.485,59.287,96.379,58.718z"/>
	<path fill="#2C71C7" d="M103.668,60.337c0.246,0.023,0.479,0.061,0.404,0.405c0.54,0,1.08,0,1.619,0
		c0.646-0.406,1.63-0.383,0.811-1.215c-0.54,0-1.08,0-1.619,0C104.876,60.197,103.759,59.754,103.668,60.337z"/>
	<path fill="#9CBEE6" d="M68.437,60.337c-0.135,0-0.27,0-0.405,0c-3.239,0-6.479,0-9.719,0c-0.945,0-1.89,0-2.834,0
		c0.05,0.895,1.718,0.172,2.429,0.405c3.243,0.267,7.555-0.536,10.124,0.405c0,1.35,0,2.699,0,4.05c0,0.135,0,0.271,0,0.405
		c0.135,0,0.27,0,0.405,0c0-1.62,0-3.24,0-4.859C68.437,60.608,68.437,60.472,68.437,60.337z"/>
	<path fill="#3170C9" d="M106.502,59.123c0,0.135,0,0.271,0,0.405c0.819,0.832-0.165,0.808-0.811,1.215c0,0.136,0,0.271,0,0.405
		s0,0.27,0,0.405c1.618-1.932,0.188,3.86,1.215,2.43c0-0.54,0-1.08,0-1.62c1.36-0.936,4.449-0.142,6.48-0.405
		c0-1.215,0-2.429,0-3.645C110.334,57.826,109.66,59.716,106.502,59.123z"/>
	<path fill="#FEFFFC" d="M86.254,61.147c-0.404,0-0.81,0-1.215,0c-0.25,1.1,0.514,3.214-0.404,3.645c0,0.136,0,0.271,0,0.405
		c0.539,0,1.079,0,1.619,0C85.06,64.875,85.06,61.469,86.254,61.147z"/>
	<path fill="#2C6BC9" d="M89.899,65.197c0.086-1.939-0.402-4.451,0.811-5.264c-0.727-0.052-0.854,0.496-1.62,0.405
		c-0.251,1.099,0.515,3.214-0.405,3.645c-0.232-0.712,0.49-2.38-0.404-2.43c-0.197,0.479-0.433,0.918-0.811,1.215
		c0,0.81,0,1.62,0,2.43c0.6,0.21,1.021,0.599,1.619,0.81c0.166-0.69,0.523,0.086,1.215,0c0-0.135,0-0.27,0-0.405
		C90.057,65.579,89.824,65.542,89.899,65.197z"/>
	<path fill="#FFFEFF" d="M104.073,61.552c1.018,0.602-0.276,3.516,1.215,3.645c0.135,0,0.27,0,0.405,0c0-1.215,0-2.43,0-3.645
		c0-0.136,0-0.27,0-0.405c-0.675,0-1.35,0-2.024,0C103.691,61.394,103.729,61.626,104.073,61.552z"/>
	<path fill="#316AC7" d="M41.71,61.552c0-1.08,0-2.159,0-3.239c-0.135,0-0.27,0-0.405,0c0,1.215,0,2.429,0,3.645
		c0.222,0.588-0.473,2.093,0.405,2.024c-0.52-2.274,2.019-1.49,3.645-1.619C45.047,61.185,42.018,62.73,41.71,61.552z"/>
	<path fill="#2C6BC9" d="M45.76,66.007c0.063-0.477-0.069-1.15,0.405-1.216c0,0.54,0,1.08,0,1.62
		c0.068,0.472,0.64,0.439,1.215,0.405c0-0.405,0-0.81,0-1.215c-0.923-0.562-0.151-2.819-0.405-4.05c-0.27,0-0.54,0-0.81,0
		c0.433,1.022-1.006,2.461-0.81,0.81c-1.626,0.129-4.164-0.654-3.645,1.62c-0.878,0.068-0.184-1.437-0.405-2.025
		c-0.135,0-0.27,0-0.405,0c0,0.811,0,1.619,0,2.43c0,0.405,0,0.811,0,1.215C41.793,66.943,43.812,64.568,45.76,66.007z"/>
	<path fill="#2C6BC9" d="M106.906,63.982c-1.027,1.43,0.404-4.361-1.215-2.43c0,1.216,0,2.43,0,3.645c0,0.136,0,0.271,0,0.405
		c0.578,0.097,0.684,0.667,1.215,0.81c0.272-1.887,4.427,0.106,4.86-1.619c0.224,0.721,0.208,1.682,0.81,2.025
		c-0.061-1.006,0.209-1.682,0.811-2.025c0-0.81,0-1.619,0-2.43c-2.16,0-4.32,0-6.48,0C106.906,62.902,106.906,63.443,106.906,63.982
		z"/>
	<path fill="#FEFFFC" d="M115.41,64.792c-0.078,1.564-0.014,2.985,0.406,4.05c0.086,0.49,0.449,0.25,0.811,0v-7.289
		C115.338,61.75,117.307,65.203,115.41,64.792z"/>
	<path fill="#2C6BC9" d="M71.677,67.222c4.185,0,8.369,0,12.553,0c0-0.136,0-0.271,0-0.406c-4.319,0-8.639,0-12.958,0
		C70.819,67.658,70.835,67.675,71.677,67.222z"/>
	<path fill="#2968C3" d="M112.576,66.817c-0.602-0.343-0.586-1.304-0.81-2.025c-0.434,1.727-4.588-0.268-4.86,1.62
		c-0.531-0.143-0.636-0.713-1.215-0.81c-0.27,0-0.539,0-0.809,0c-0.068,0.472-0.641,0.439-1.215,0.405
		c-3.379,0.674-9.58,0.674-12.959,0c-0.136,0-0.27,0-0.406,0c-0.691,0.085-1.049-0.691-1.215,0
		c-0.072,0.883,0.332,1.288,1.215,1.215c3.807,0.918,9.295,0.154,13.77,0.405c1.076,1.114,1.418-0.298,2.43-0.405
		c0.896,1.422,5.804,0.705,4.454,2.024c0.089,0.315,0.339,0.471,0.81,0.405c0.285-1.874,1.334-2.985,1.619-4.859
		C112.785,65.136,112.516,65.811,112.576,66.817z M93.949,67.222c-5.191-0.247-1.352-0.474,3.239-0.406c2.159,0,4.319,0,6.479,0
		C101.473,67.442,96.547,67.345,93.949,67.222z"/>
	<path fill="#2968C3" d="M65.198,67.222c-5.4-0.27-11.877,0.538-16.603-0.405c6.354-0.53,14.834,1.065,19.843-0.81
		c0-0.136,0-0.27,0-0.405c-0.135,0-0.27,0-0.405,0c-0.089,0.315-0.339,0.47-0.81,0.405c-5.266,0.674-13.361,0.674-18.627,0
		c0-0.136,0-0.27,0-0.405c-0.27,0-0.54,0-0.81,0c-0.135,0-0.27,0-0.405,0c0,0.405,0,0.81,0,1.215
		c0.089,0.315,0.339,0.471,0.81,0.405C52.932,67.88,60.459,67.908,65.198,67.222z"/>
	<path fill="#285EC3" d="M41.71,68.437c0-0.136,0-0.271,0-0.406c-1.463,0.385-0.565-1.594-0.81-2.429c0-0.405,0-0.811,0-1.216
		c-0.328,0.078-0.403,0.407-0.81,0.405c-0.09,0.314-0.011,0.8-0.405,0.811c0.439,1.45,0.49,3.289,1.215,4.454
		c0.135,0,0.27,0,0.405,0C41.275,69.351,41.396,68.797,41.71,68.437z"/>
	<path fill="#276AC6" d="M85.445,67.222c-0.558-0.018-0.89,0.189-1.215,0.404c-3.239,0-6.479,0-9.719,0
		c3.378,0.675,9.58,0.675,12.958,0c-1.46,0.166-0.555-0.739,0.406-0.404c-0.015-1.303-1.152-0.182-2.43-0.811
		C84.955,66.498,85.196,66.861,85.445,67.222z"/>
	<path fill="#FFFFFF" d="M40.496,73.296c-0.479,0.058-0.918,0.721-1.215,0c0.711-0.369,0.741-1.419,1.215-2.025
		c0.063-0.477-0.07-1.149,0.405-1.215c-0.725-1.165-0.775-3.004-1.215-4.454c-0.675-7.561-0.675-17.952,0-25.512
		c0-0.405,0-0.81,0-1.215c0-0.135,0-0.271,0-0.405c-1.127,0.183,0.317-2.208-0.81-2.024V77.75h5.669c0-0.136,0-0.271,0-0.405
		C43.633,75.558,42.045,74.447,40.496,73.296z"/>
	<path fill="#2665C4" d="M110.957,69.247c-22.703-0.017-47.479,0.021-68.842,0c1.667,4.06,4.73,1.088,7.29,2.835
		c0.716-0.761,1.182,0.481,2.024-0.406c0.135,0,0.27,0,0.405,0c3.512-0.942,8.772-0.136,12.958-0.404
		c2.031,0.263,5.121-0.531,6.479,0.404c1.08,0,2.159,0,3.239,0c1.229-0.673,5.25-0.673,6.479,0c2.574-0.28,3.904,0.686,6.479,0.406
		c-0.18-1.17-3.06,0.359-3.239-0.811c2.159,0,4.319,0,6.479,0c2.031,0.264,5.12-0.531,6.479,0.405c1.08,0,2.16,0,3.24,0
		c0.824-0.929,3.363-0.146,4.859-0.405c1.035,1.86,1.627-0.848,2.834,0.811c0.54,0,1.08,0,1.62,0c1.149,0.068,0.79-1.37,2.43-0.811
		c0.03-0.705-0.091-1.26-0.405-1.619C111.295,69.717,111.046,69.562,110.957,69.247z"/>
	<path fill="#2463C4" d="M100.428,72.486c1.268-0.082,2.973,0.273,3.645-0.404c-0.023-0.247-0.061-0.479-0.404-0.406
		c-1.359,0.937-4.449,0.143-6.48,0.406c-1.35,0-2.699,0-4.049,0c-0.836-0.245-2.814,0.653-2.43-0.811c-2.16,0-4.32,0-6.479,0
		c0.18,1.17,3.06-0.359,3.239,0.811c0,0.135,0,0.27,0,0.404C91.789,72.486,96.109,72.486,100.428,72.486z"/>
	<path fill="#2463C4" d="M105.287,71.271c-0.086,0.454-0.449,0.631-0.81,0.811c0.007,0.668,1.124,0.227,1.215,0.809
		c0.247,0.023,0.479,0.061,0.405,0.406c-0.246,0.023-0.479,0.061-0.405,0.404c1.145,0.335,1.05-0.57,2.024-0.404
		c0.064-0.477-0.069-1.15,0.406-1.215C106.914,70.423,106.323,73.131,105.287,71.271z"/>
	<path fill="#285EC3" d="M109.742,72.082c-0.092,0.766,0.455,0.893,0.404,1.619c0.135,0,0.271,0,0.405,0
		c0.93-0.555,1.302-1.668,2.024-2.43c-0.135,0-0.27,0-0.404,0C110.531,70.711,110.891,72.15,109.742,72.082z"/>
	<path fill="#2263C1" d="M68.032,72.486c0,0.136,0,0.271,0,0.405c1.08,0,2.16,0,3.24,0c-0.411-1.896,3.042,0.073,3.239-1.215
		c-1.08,0-2.16,0-3.239,0C71.092,72.845,68.212,71.316,68.032,72.486z"/>
	<path fill="#2263C1" d="M84.23,72.89c0.968-0.246,2.938,0.509,3.239-0.404c0-0.136,0-0.27,0-0.405
		c-2.574,0.28-3.904-0.686-6.479-0.405C81.188,72.964,84.641,70.996,84.23,72.89z"/>
	<path fill="#FCFFFF" d="M43.33,74.511c0.27,0,0.54,0,0.81,0c-1.099-1.466-2.513-2.616-3.239-4.455
		c-0.475,0.065-0.341,0.738-0.405,1.215c1.187,0.344-0.242,1.304,0,2.025c1.549,1.15,3.137,2.262,4.049,4.049
		c0.247-0.022,0.479-0.061,0.405-0.404C45.345,75.195,43.428,75.762,43.33,74.511z"/>
	<path fill="#2160C3" d="M87.469,72.486c-0.301,0.913-2.271,0.158-3.238,0.405c-4.32,0-8.639,0-12.959,0c0,0.136,0,0.271,0,0.405
		c6.582-0.032,13.423,0.195,19.438-0.405c1.964,0.467,5.838-0.978,6.479,0.81c1.08,0,2.16,0,3.24,0c0-0.404,0-0.81,0-1.215
		C96.109,72.486,91.789,72.486,87.469,72.486z"/>
	<path fill="#2866C6" d="M109.742,72.082c-0.541,0-1.08,0-1.62,0c-0.475,0.064-0.342,0.738-0.405,1.215
		c1.018-1.061,0.869,1.107,0.405,2.024c1.101-0.249,1.896-0.803,2.429-1.62c-0.135,0-0.27,0-0.404,0
		C110.198,72.974,109.651,72.847,109.742,72.082z"/>
	<path fill="#2462C2" d="M58.313,72.486c-2.43,0-4.86,0-7.29,0c0,0.271,0,0.541,0,0.811c5.166,0.979,12.063,0.187,17.008-0.406
		C64.924,72.625,60.747,73.427,58.313,72.486z"/>
	<path fill="#2462C2" d="M47.38,73.701c0.47,0.34,1.085,0.534,2.025,0.405c-0.001-0.407,0.328-0.482,0.405-0.81
		c-0.314-0.091-0.799-0.012-0.81-0.406c0.314-0.09,0.799-0.01,0.81-0.404c-0.247-0.023-0.479-0.061-0.405-0.405
		c-2.559-1.747-5.622,1.226-7.29-2.835c-0.535,0.005-0.37,0.71-0.81,0.811c-0.135,0-0.27,0-0.405,0
		c0.727,1.838,2.141,2.989,3.239,4.454c0.843,0.237,1.309,0.851,2.025,1.215c0.518,0.022,0.561,0.519,1.215,0.405
		C48.192,76.308,45.805,74.285,47.38,73.701z"/>
	<path fill="#225FC0" d="M64.792,74.106c0.302-0.913,2.271-0.158,3.239-0.405c0.302-0.913,2.271-0.158,3.24-0.405
		c0-0.136,0-0.27,0-0.405c-1.08,0-2.16,0-3.24,0c-4.944,0.593-11.842,1.384-17.008,0.405c0-0.27,0-0.54,0-0.81
		c-0.405,0-0.81,0-1.215,0c-0.011,0.394-0.496,0.314-0.81,0.404c0.011,0.395,0.495,0.315,0.81,0.406
		c-0.077,0.327-0.407,0.403-0.405,0.81c0.27,0,0.54,0,0.81,0c1.62,0,3.239,0,4.859,0C58.313,74.106,61.552,74.106,64.792,74.106z"/>
	<path fill="#2463C4" d="M71.272,73.296c-0.969,0.246-2.938-0.509-3.24,0.404c6.479,0,12.958,0,19.437,0
		c0.303-0.912,2.271-0.157,3.24-0.404c0-0.136,0-0.27,0-0.406C84.695,73.491,77.854,73.263,71.272,73.296z"/>
	<path fill="#2462C2" d="M90.709,72.89c0,0.137,0,0.271,0,0.406c2.574-0.281,3.904,0.685,6.479,0.404
		C96.547,71.913,92.673,73.357,90.709,72.89z"/>
	<path fill="#2968C3" d="M107.717,73.296c-0.976-0.166-0.881,0.739-2.025,0.404c-0.975-0.166-0.879,0.74-2.023,0.405
		c0,0.136,0,0.271,0,0.405c0,0.136,0,0.271,0,0.405c0.488,0.086,0.248,0.449,0,0.811c1.273,0.464,0.983-0.636,1.619-0.811
		c0.537,0.407,1.507,0.384,1.619,1.216c0.697,0.021,1.038-0.313,1.215-0.811C108.586,74.404,108.735,72.236,107.717,73.296z"/>
	<path fill="#6C93D6" d="M74.916,74.916c-0.247-0.022-0.479-0.061-0.405-0.404c-1.485,0-2.969,0-4.455,0
		c0.535,1.354,4.553-0.774,4.455,1.215c0.135,0,0.27,0,0.405,0c2.025,0,4.049,0,6.074,0c0-0.136,0-0.271,0-0.406
		C79.093,75.058,76.142,75.85,74.916,74.916z"/>
	<path fill="#4579C9" d="M92.329,75.321c0.712,0.233,2.38-0.489,2.429,0.405c0.811,0,1.621,0,2.43,0
		c-0.246-1.597,2.224-0.477,3.24-0.81c0-0.136,0-0.271,0-0.405c-1.08,0-2.16,0-3.24,0c-1.619,0-3.239,0-4.859,0
		C92.329,74.781,92.329,75.05,92.329,75.321z"/>
	<path fill="#3572C9" d="M100.428,74.916c0,0.135,0,0.271,0,0.405c1.24-0.813,2.11,0.519,3.24-0.405c0-0.135,0-0.27,0-0.404
		c-1.08,0-2.16,0-3.24,0C100.428,74.646,100.428,74.781,100.428,74.916z"/>
	<path fill="#FDFEF3" d="M43.33,74.511c0.098,1.251,2.015,0.684,1.62,2.429c0.135,0,0.27,0,0.405,0
		c0.097-0.577,0.667-0.683,0.81-1.215c-0.716-0.364-1.182-0.978-2.025-1.215C43.87,74.511,43.6,74.511,43.33,74.511z"/>
	<path fill="#FFFEFF" d="M106.906,76.13c-0.899,0.315-1.578,0.851-2.834,0.811c-0.404,0-0.811,0-1.215,0c0,0.135,0,0.27,0,0.404
		c0.605,0.069,1.494-0.145,1.619,0.405h4.051C108.398,76.8,107.274,76.843,106.906,76.13z"/>
	<path fill="#FFFFFF" d="M115.817,68.841c-0.407-0.001-0.482,0.328-0.811,0.405c0.09-1.304-0.717-1.714-0.404-3.239
		c-0.689,1.741-1.003,3.857-2.025,5.265c-0.723,0.762-1.096,1.874-2.025,2.429c-0.533,0.817-1.329,1.371-2.43,1.62
		c-0.177,0.499-0.518,0.832-1.215,0.81c0.367,0.714,1.49,0.67,1.62,1.62h8.099v-8.909C116.266,69.091,115.902,69.331,115.817,68.841
		z"/>
	<path fill="#FFFFFF" d="M40.091,35.636c0.569-0.105,0.461-0.888,0.81-1.215c1.447-2.467,2.855-4.973,6.075-5.669
		c0-0.135,0-0.27,0-0.405c-0.125-1.111-2.359-1.693,0-2.024c0.344,0.075,0.382-0.158,0.405-0.405h-8.504v8.099
		C39.71,34.125,38.972,35.809,40.091,35.636z"/>
	<path fill="#FEFFF9" d="M103.668,27.132c0.135,0,0.27,0,0.404,0c0.9-0.938,1.579,0.137,2.834,0c0.775-0.17,1.744-0.146,1.621-1.215
		h-4.859C103.825,26.495,104.154,26.6,103.668,27.132z"/>
	<path fill="#FFFEFF" d="M93.949,27.132c3.239,0,6.479,0,9.719,0c0.486-0.532,0.157-0.637,0-1.215h-2.835
		C100.084,27.868,95.315,25.798,93.949,27.132z"/>
	<path fill="#FEFFFC" d="M48.594,27.941c0.39-1.469-1.819-0.34-1.619-1.619c-2.359,0.332-0.125,0.914,0,2.024
		C47.522,28.219,47.748,27.77,48.594,27.941z"/>
	<path fill="#B1C0E4" d="M103.262,27.537c0.271,0,0.541,0,0.811,0c0-0.135,0-0.27,0-0.405c-0.135,0-0.27,0-0.404,0
		c-3.24,0-6.48,0-9.72,0c-11.879,0-23.757,0-35.635,0c-2.16,0-4.32,0-6.479,0c-0.345-0.075-0.382,0.158-0.405,0.405
		c14.174,0,28.347,0,42.521,0C97.053,27.537,100.158,27.537,103.262,27.537z"/>
	<path fill="#1454B8" d="M51.834,27.941c1.08,0,2.159,0,3.239,0c12.958,0,25.917,0,38.876,0c0-0.135,0-0.27,0-0.405
		c-14.174,0-28.347,0-42.521,0c-0.27,0-0.54,0-0.81,0C50.688,28.008,51.26,27.976,51.834,27.941z"/>
	<path fill="#0F54B9" d="M93.949,27.941c1.079,0,2.159,0,3.239,0s2.159,0,3.239,0c0.945,0,1.89,0,2.834,0c0-0.135,0-0.27,0-0.405
		c-3.104,0-6.209,0-9.313,0C93.949,27.672,93.949,27.806,93.949,27.941z"/>
	<path fill="#F8F9FE" d="M104.073,27.132c0,0.135,0,0.27,0,0.405c1.288,0.062,1.781,0.918,3.24,0.81
		c0.113-0.654-0.384-0.698-0.406-1.215C105.652,27.269,104.973,26.194,104.073,27.132z"/>
	<path fill="#285EC3" d="M100.428,28.751c0.27,0,0.54,0,0.811,0c-0.24-0.962,3.51,0.063,2.023-0.811c-0.944,0-1.889,0-2.834,0
		C100.428,28.211,100.428,28.481,100.428,28.751z"/>
	<path fill="#FEFFFC" d="M108.932,29.156c0.293-1.276,1.322-0.788,1.215-1.62c-1.586-1.222-1.942,0.089-2.024,1.215
		C108.133,29.145,108.617,29.066,108.932,29.156z"/>
	<path fill="#225CBA" d="M42.115,34.826c-0.074-0.345,0.158-0.382,0.405-0.405c0.408-0.806,0.7-1.729,1.62-2.024
		c0.997-1.702,2.673-2.727,4.86-3.239c0.405,0,0.81,0,1.215,0c0.431-0.919,2.545-0.154,3.645-0.405
		c0.068-0.878-1.437-0.183-2.024-0.405c0-0.135,0-0.27,0-0.405c-0.575,0.035-1.146,0.067-1.215-0.405
		c-1.144-0.334-1.049,0.57-2.025,0.405c-0.846-0.172-1.072,0.277-1.619,0.405c0,0.135,0,0.27,0,0.405
		c-3.22,0.696-4.628,3.202-6.075,5.669c0.406-0.001,0.482,0.328,0.81,0.405C41.845,34.826,41.98,34.826,42.115,34.826z"/>
	<path fill="#225CBA" d="M68.032,28.751c2.834,0,5.669,0,8.504,0c0-0.135,0-0.271,0-0.405c-7.154,0-14.308,0-21.462,0
		c0,0.135,0,0.27,0,0.405c2.16,0,4.32,0,6.479,0C63.712,28.751,65.872,28.751,68.032,28.751z"/>
	<path fill="#225FC0" d="M84.23,28.751c2.835,0,5.669,0,8.505,0c0-0.135,0-0.271,0-0.405c-5.4,0-10.799,0-16.199,0
		c0,0.135,0,0.27,0,0.405C79.101,28.751,81.666,28.751,84.23,28.751z"/>
	<path fill="#5A94DE" d="M55.073,29.156c0-0.135,0-0.27,0-0.405c-0.405,0-0.81,0-1.215,0c-1.099,0.25-3.214-0.514-3.645,0.405
		c0.945,0,1.89,0,2.834,0C53.723,29.156,54.399,29.156,55.073,29.156z"/>
	<path fill="#6299D9" d="M61.552,29.156c0-0.135,0-0.27,0-0.405c-2.159,0-4.319,0-6.479,0c0,0.135,0,0.27,0,0.405
		c1.62,0,3.24,0,4.86,0C60.473,29.156,61.012,29.156,61.552,29.156z"/>
	<path fill="#6299D9" d="M93.949,28.751c0,0.135,0,0.27,0,0.405c0.404,0,0.809,0,1.215,0c1.754,0,3.51,0,5.264,0
		c1.08,0,2.16,0,3.24,0c-0.052-0.895-1.719-0.172-2.43-0.405c-0.271,0-0.541,0-0.811,0C98.269,28.751,96.109,28.751,93.949,28.751z"
		/>
	<path fill="#659DDE" d="M82.205,30.372c1.756,0,3.51,0,5.264,0c1.08,0,2.16,0,3.24,0c0.54,0,1.08,0,1.619,0
		c0-0.135,0-0.271,0-0.405c-1.619,0-3.239,0-4.859,0c-1.755,0-3.51,0-5.264,0C82.205,30.101,82.205,30.236,82.205,30.372z"/>
	<path fill="#5A94DE" d="M47.38,31.991c1.741,0.191,0.519-1.09,1.215-1.215c1.454-0.841,4.379-0.21,6.479-0.405
		c0.27,0,0.54,0,0.81,0c0-0.135,0-0.27,0-0.405c-0.27,0-0.54,0-0.81,0c-1.837-0.458-5.556,0.967-6.074-0.81
		c-2.187,0.513-3.863,1.537-4.86,3.239c1.149-0.606,2.665-0.844,4.05-1.215C48.089,31.621,47.385,31.456,47.38,31.991z"/>
	<path fill="#5391DA" d="M60.338,30.776c-2.333,0.254-2.667,0.01-5.265,0c0,0.27,0,0.54,0,0.81
		c5.558-0.293,10.084,0.444,15.388,0.405C68.23,30.63,63.541,31.989,60.338,30.776z"/>
	<path fill="#5090D9" d="M90.709,30.372c-1.08,0-2.16,0-3.24,0c-5.67,0.675-14.171,0.675-19.842,0c-0.945,0-1.89,0-2.834,0
		c-0.693,0.927-3.091,0.148-4.455,0.405c3.203,1.213,7.893-0.146,10.124,1.215c4.079-0.973,9.519-0.168,13.769,0
		c4.742-1.292,9.35-0.311,14.578-1.215C96.239,30.511,92.605,31.31,90.709,30.372z"/>
	<path fill="#5391DA" d="M98.809,30.776c-5.229,0.904-9.836-0.077-14.578,1.215c6.669-0.08,12.842-0.656,19.842-0.405
		c-0.086-0.664-0.29-1.032,1.62-0.405c-0.208-1.411-2.646-0.594-4.05-0.81C101.469,31.277,99.647,30.535,98.809,30.776z"/>
	<path fill="#FFFCFF" d="M39.686,38.47c0.129-0.95,0.64-1.52,0.405-2.834c-1.118,0.173-0.38-1.51-1.215-1.62v2.43
		C40.003,36.263,38.558,38.653,39.686,38.47z"/>
	<path fill="#2462C2" d="M40.496,38.875c0.135,0,0.27,0,0.405,0c0.091-0.314,0.011-0.799,0.405-0.811
		c0.034-0.641-0.195-1.544,0.405-1.619c0-0.54,0-1.08,0-1.62c-0.328-0.077-0.404-0.406-0.81-0.405
		c-0.348,0.327-0.241,1.11-0.81,1.215c0.235,1.314-0.276,1.884-0.405,2.834c0,0.135,0,0.27,0,0.405c0.135,0,0.27,0,0.405,0
		C40.089,38.65,40.418,38.416,40.496,38.875z"/>
	<path fill="#4A86D3" d="M41.305,38.47c-0.512,1.732,2.807,2.06,4.455,1.215C45.416,38.14,42.212,39.453,41.305,38.47z"/>
	<path fill="#AFC9EC" d="M48.594,39.685c-0.135,0-0.27,0-0.405,0c0,0.135,0,0.271,0,0.405c5.669,0,11.338,0,17.008,0
		c0.81,0,1.62,0,2.43,0c0,1.35,0,2.699,0,4.049c0.135,0,0.27,0,0.405,0c0-1.215,0-2.429,0-3.645c0.065-0.47-0.089-0.72-0.405-0.81
		c-0.945,0-1.89,0-2.834,0C59.393,39.685,53.993,39.685,48.594,39.685z"/>
	<path fill="#4A86D3" d="M47.38,42.115c0.222-0.588-0.473-2.093,0.405-2.024c0-0.135,0-0.27,0-0.405
		c-1.192-0.557-0.792,0.905-1.62-0.81c0,0.675,0,1.35,0,2.024C46.392,41.483,46.796,41.888,47.38,42.115z"/>
	<path fill="#FFFFFF" d="M48.594,40.9c4.591-0.943,10.933-0.136,16.198-0.405c0.135,0,0.27,0,0.405,0c0-0.135,0-0.27,0-0.405
		c-5.669,0-11.338,0-17.008,0c0,0.27,0,0.54,0,0.81C48.324,40.9,48.459,40.9,48.594,40.9z"/>
	<path fill="#FCFFFF" d="M65.198,40.09c0,0.135,0,0.27,0,0.405c0.066,0.471-0.089,0.721-0.405,0.81
		c0.177,0.498,0.519,0.832,1.215,0.81c0.538,0.677,1.566,0.864,1.215,2.429c0.345,0.075,0.382-0.158,0.405-0.405
		c0-1.349,0-2.7,0-4.049C66.817,40.09,66.007,40.09,65.198,40.09z"/>
	<path fill="#1454B8" d="M40.091,48.594c0-3.24,0-6.479,0-9.719c-0.135,0-0.27,0-0.405,0c0,0.405,0,0.811,0,1.215
		c0,2.834,0,5.669,0,8.504C39.821,48.594,39.956,48.594,40.091,48.594z"/>
	<path fill="#4785D3" d="M41.305,42.115c0.135,0,0.27,0,0.405,0c0.475-0.065,0.341-0.738,0.405-1.215c1.35,0,2.7,0,4.05,0
		c0-0.675,0-1.35,0-2.024c-0.394,0.011-0.314,0.495-0.405,0.81c-1.648,0.845-4.966,0.518-4.455-1.215c0-0.135,0-0.27,0-0.405
		c-0.394,0.011-0.314,0.496-0.405,0.811c0,1.08,0,2.159,0,3.239C41.035,42.115,41.17,42.115,41.305,42.115z"/>
	<path fill="#FFFFFF" d="M48.594,42.925c2.434-0.94,6.611-0.138,9.719-0.405c0.54,0,1.08,0,1.62,0
		c-2.973-0.942-7.692-0.138-11.339-0.405c-0.135,0-0.27,0-0.405,0c0,0.405,0,0.81,0,1.215c0.135,0,0.27,0,0.405,0
		C48.594,43.195,48.594,43.06,48.594,42.925z"/>
	<path fill="#3A78CC" d="M68.437,40.9c0.074-0.345-0.158-0.382-0.405-0.405c0,1.215,0,2.43,0,3.645
		C68.751,45.22,68.327,41.767,68.437,40.9z"/>
	<path fill="#487FD3" d="M41.71,46.569c0-0.81,0-1.62,0-2.43c0-0.405,0-0.81,0-1.215c0-0.27,0-0.54,0-0.81c-0.135,0-0.27,0-0.405,0
		c0,1.485,0,2.97,0,4.455C41.44,46.569,41.575,46.569,41.71,46.569z"/>
	<path fill="#608ED2" d="M47.784,44.949c0.135,0,0.27,0,0.405,0c0-0.135,0-0.27,0-0.405c0-0.135,0-0.271,0-0.405s0-0.27,0-0.405
		c0-0.135,0-0.27,0-0.405c0-0.405,0-0.811,0-1.215s0-0.81,0-1.215c0-0.27,0-0.54,0-0.81c0-0.135,0-0.27,0-0.405
		c-0.135,0-0.27,0-0.405,0c0,0.135,0,0.271,0,0.405C47.784,41.709,47.784,43.33,47.784,44.949z"/>
	<path fill="#FEFFFC" d="M58.313,44.139c0,0.135,0,0.27,0,0.405c0.675,0,1.35,0,2.024,0c1.177-0.352,0.456-0.606,0.405-1.62
		c-3.705,0.479-7.921,0.448-12.148,0.405c-0.135,0-0.27,0-0.405,0c0,0.135,0,0.27,0,0.405
		C51.432,44.001,55.744,43.198,58.313,44.139z"/>
	<path fill="#4482D1" d="M47.784,40.09c-0.878-0.068-0.183,1.437-0.405,2.024c0.063,1.008-0.636,1.253-0.81,2.024
		c-1.007-0.061-0.119-1.371,0-1.619c-0.005-1.136-1.105,0.964-0.81-0.811c-0.291,1.465-3.213,0.296-4.049,1.215
		c0,0.405,0,0.81,0,1.215c1.489,0.806,4.467,0.123,6.074,0.81C47.784,43.33,47.784,41.709,47.784,40.09z"/>
	<path fill="#C7DBF3" d="M59.933,45.354c0.135,0,0.27,0,0.405,0c0-0.27,0-0.54,0-0.81c-0.675,0-1.35,0-2.024,0
		c-3.375,0-6.75,0-10.124,0c0,0.135,0,0.27,0,0.405c0.135,0,0.27,0,0.405,0C52.241,45.217,56.96,44.413,59.933,45.354z"/>
	<path fill="#FFFEFF" d="M66.007,42.115c0.688,1.334,0.023,2.023-0.81,2.834c0.474,1.059-1.25,1.742,0.405,1.62
		c0.135,0,0.27,0,0.405,0c0.407-0.538,0.383-1.507,1.215-1.62c0-0.135,0-0.27,0-0.405C67.573,42.978,66.545,42.792,66.007,42.115z"
		/>
	<path fill="#3275D0" d="M59.123,46.165c0.36-0.18,0.724-0.355,0.81-0.811c-2.973-0.941-7.692-0.137-11.339-0.405
		c1.912,0.756,6.266,0.42,7.694,0.405c0.27,0,0.54,0,0.81,0C58.93,45.091,58.935,45.627,59.123,46.165z"/>
	<path fill="#1651BF" d="M114.196,58.313c0.137,0,0.271,0,0.406,0c0-5.534,0-11.069,0-16.604
		C113.658,46.436,114.465,52.913,114.196,58.313z"/>
	<path fill="#FFFFFF" d="M115.817,48.594c-0.037,1.438,0.045,4.792,0,7.694c-0.034,2.14-0.032,7.229-0.406,3.239
		c0.035-0.574,0.067-1.146-0.404-1.215c0,1.756,0,3.51,0,5.264c0.471,0.069,0.439,0.641,0.404,1.216
		c1.896,0.411-0.072-3.042,1.216-3.239V42.115C115.426,43.344,117.017,47.365,115.817,48.594z"/>
	<path fill="#4482D1" d="M59.123,46.165c-0.188-0.537-0.193-1.073-2.025-0.811c-0.572,2.212-1.018,2.959-1.619,4.455
		c0.27,0,0.54,0,0.81,0C57.564,48.925,58.34,47.542,59.123,46.165z"/>
	<path fill="#3275D0" d="M74.511,46.165c3.375,0,6.749,0,10.124,0C82.199,45.49,76.948,45.49,74.511,46.165z"/>
	<path fill="#3275D0" d="M90.709,46.165c4.725,0,9.448,0,14.174,0C101.1,45.49,94.492,45.49,90.709,46.165z"/>
	<path fill="#4181D0" d="M70.866,44.139c-0.474,0.065-0.341,0.738-0.405,1.215c-0.865,0.189-0.771-0.578-0.81-1.215
		c-0.378,0.297-0.613,0.736-0.81,1.215c0.222,0.589-0.473,2.093,0.405,2.025c0.562-0.249,0.061-1.559,0.81-1.62
		c0.069,0.606-0.145,1.494,0.405,1.62c-0.061-1.006,0.209-1.681,0.81-2.025c0.315,0.09,0.471,0.34,0.405,0.811
		c0.945,0,1.89,0,2.834,0c2.436-0.674,7.688-0.674,10.124,0c0.405,0,0.81,0,1.215,0c1.164-0.889,1.854,0.261,2.835-0.811
		c0.069,0.606-0.145,1.495,0.405,1.62c0.045-0.494,0.121-0.958,0.81-0.81c-0.34,0.47-0.534,1.085-0.405,2.024
		c0.043,2.147,0.229,0.479,0.81,0c0-0.405,0-0.811,0-1.215c0-0.135,0-0.27,0-0.405c0.022-0.247,0.061-0.479,0.405-0.405
		c3.783-0.674,10.391-0.674,14.174,0c0.27,0,0.539,0,0.81,0c0.946-2.115,0.491,0.84,1.215,1.215c0-0.27,0-0.54,0-0.81
		c2.159,0,4.32,0,6.479,0c0-0.675,0-1.35,0-2.024C99.348,44.275,84.231,45.084,70.866,44.139z"/>
	<path fill="#C7DBF3" d="M73.297,46.569c3.645,0,7.29,0,10.934,0c0.135,0,0.27,0,0.404,0c0.676,0,1.35,0,2.025,0
		c0-0.135,0-0.27,0-0.405c-0.27,0-0.539,0-0.81,0c-0.405,0-0.81,0-1.216,0c-3.374,0-6.749,0-10.124,0c-0.945,0-1.89,0-2.834,0
		c0,0.135,0,0.27,0,0.405C72.217,46.569,72.757,46.569,73.297,46.569z"/>
	<path fill="#4078C8" d="M105.692,48.189c0.654-0.114,0.697,0.383,1.215,0.405c0-0.405,0-0.81,0-1.215
		c-0.723-0.375-0.269-3.33-1.215-1.215c0,0.135,0,0.271,0,0.405C105.692,47.109,105.692,47.649,105.692,48.189z"/>
	<path fill="#FEFFFC" d="M73.297,46.974c-0.314,0.091-0.799,0.011-0.81,0.405c1.584-0.64,0.838,1.051,1.62,1.215
		c0-0.405,0-0.81,0-1.215c3.375,0,6.749,0,10.124,0c0.315-0.09,0.471-0.339,0.404-0.81c-0.135,0-0.27,0-0.404,0
		C81.393,47.511,76.809,46.707,73.297,46.974z"/>
	<path fill="#FEFFFC" d="M104.883,46.569c-0.406,0-0.811,0-1.215,0c-3.513,0.942-8.773,0.137-12.959,0.405c0,0.135,0,0.27,0,0.405
		c4.186,0.268,9.446-0.538,12.959,0.405C104.045,47.352,105.161,47.658,104.883,46.569z"/>
	<path fill="#3F7DCF" d="M66.007,46.569c-0.135,0-0.27,0-0.405,0c-0.427,1.464-1.538,2.243-2.43,3.24c0,0.135,0,0.27,0,0.405
		c0.27,0,0.54,0,0.81,0c0.571-0.369,4.149-1.151,4.049,0.405c0.475-0.065,0.342-0.738,0.405-1.215
		c0.378,0.297,0.613,0.736,0.81,1.215c0.759-1.029,0.86-0.186,1.619-1.215c0.241-0.839-0.5-2.66,0.405-2.834
		c0.023-0.247,0.061-0.479,0.405-0.405c0.066-0.471-0.089-0.721-0.405-0.811c-0.601,0.344-0.871,1.02-0.81,2.025
		c-0.55-0.126-0.336-1.014-0.405-1.62c-0.749,0.061-0.249,1.372-0.81,1.62c-0.878,0.068-0.184-1.437-0.405-2.025
		c-0.97-0.16,0.225,1.845-1.215,1.215C66.913,46.923,66.373,47.924,66.007,46.569z"/>
	<path fill="#FEFFF9" d="M84.23,47.379c0,0.135,0,0.27,0,0.405c0.675,0,1.351,0,2.024,0c0.149,0.688-0.315,0.764-0.81,0.81
		c0.228,0.842,0.632,0.858,1.215,0.405c0-0.811,0-1.62,0-2.43c-0.675,0-1.349,0-2.024,0C84.701,47.041,84.545,47.29,84.23,47.379z"
		/>
	<path fill="#3F7DCF" d="M87.065,46.569c0.896,0.318-0.077,2.507,1.619,2.025c0.406,0.001,0.482-0.328,0.811-0.405
		c-0.13-0.938,0.064-1.554,0.404-2.024c-0.688-0.149-0.764,0.316-0.81,0.81c-0.55-0.125-0.336-1.014-0.405-1.62
		c-0.981,1.071-1.67-0.079-2.834,0.81c0.27,0,0.539,0,0.809,0C86.906,46.187,87.139,46.225,87.065,46.569z"/>
	<path fill="#F9FFF7" d="M103.668,47.784c-4.188-0.269-9.447,0.538-12.959-0.405c0-0.135,0-0.27,0-0.405c-0.136,0-0.27,0-0.406,0
		c0,0.405,0,0.81,0,1.215c4.455,0,8.91,0,13.365,0C103.668,48.054,103.668,47.918,103.668,47.784z"/>
	<path fill="#FCFFFF" d="M78.156,50.214c-0.092-1.798-3.958,0.178-4.049-1.62c-0.782-0.164-0.035-1.854-1.62-1.215
		c0.011-0.394,0.496-0.313,0.81-0.405c0-0.135,0-0.27,0-0.405c-0.54,0-1.08,0-1.62,0c0,1.35,0,2.699,0,4.049c0.81,0,1.62,0,2.43,0
		C74.668,49.695,76.925,50.468,78.156,50.214z"/>
	<path fill="#AFC9EC" d="M86.659,50.619c0.925-0.562,0.151-2.818,0.405-4.049c0.074-0.344-0.158-0.382-0.405-0.405
		c0,0.135,0,0.27,0,0.405c0,0.81,0,1.62,0,2.43C86.659,49.539,86.659,50.079,86.659,50.619z"/>
	<path fill="#7CAAE2" d="M71.272,46.569c0.254,1.231-0.519,3.488,0.405,4.049c0-1.35,0-2.699,0-4.049c0-0.135,0-0.27,0-0.405
		C71.332,46.09,71.295,46.322,71.272,46.569z"/>
	<path fill="#3170C9" d="M72.487,51.024c-0.314-0.091-0.799-0.011-0.81-0.405c-0.923-0.562-0.151-2.818-0.405-4.049
		c-0.906,0.174-0.164,1.996-0.405,2.834C70.437,51.022,72.064,52.649,72.487,51.024z"/>
	<path fill="#4484C9" d="M72.487,51.024c1.63-0.26,4.306,0.526,5.265-0.405c-1.215,0-2.43,0-3.645,0c-0.81,0-1.62,0-2.43,0
		C71.688,51.012,72.172,50.933,72.487,51.024z"/>
	<path fill="#397DCF" d="M89.089,51.833c0.935,0.124,0.45-1.17,1.215-1.215c0-0.135,0-0.27,0-0.405c0-0.54,0-1.08,0-1.62
		c0-0.135,0-0.27,0-0.405c-0.581,0.479-0.767,2.148-0.81,0c-0.328,0.077-0.404,0.407-0.81,0.405
		C88.507,49.986,88.844,50.864,89.089,51.833z"/>
	<path fill="#4484C9" d="M98.403,51.429c0.248-0.023,0.48-0.061,0.406-0.405c-2.031-0.939-5.801-0.139-8.505-0.405
		c0,0.135,0,0.27,0,0.405C92.873,51.29,96.508,50.49,98.403,51.429z"/>
	<path fill="#3C79CE" d="M41.71,53.453c1.911-1.433,8.984-1.208,10.934,0c-0.247,0.023-0.479,0.061-0.405,0.405
		c0.091,0.315,0.011,0.8,0.405,0.811c0.531-0.144,0.637-0.713,1.215-0.811c0.34-1.819,2.089-2.229,2.43-4.049c-0.27,0-0.54,0-0.81,0
		c-2.169,0.872-10.246-1.271-13.364,0.81c-0.905-0.174-0.164-1.995-0.405-2.834c0-0.405,0-0.81,0-1.215c-0.135,0-0.27,0-0.405,0
		c0,0.675,0,1.35,0,2.025c0,1.755,0,3.51,0,5.264C41.552,53.835,41.784,53.798,41.71,53.453z"/>
	<path fill="#397DCF" d="M41.305,53.858c0-1.754,0-3.509,0-5.264c-0.135,0-0.27,0-0.405,0c0,2.564,0,5.13,0,7.694
		c0.135,0,0.27,0,0.405,0C41.305,55.478,41.305,54.668,41.305,53.858z"/>
	<path fill="#FFFFFF" d="M104.883,46.569c0.278,1.089-0.838,0.783-1.215,1.215c0,0.135,0,0.27,0,0.405
		c-1.201,0.689-3.335,0.446-4.859,0.811c-0.166,0.976,0.738,0.88,0.404,2.024c-0.135,0-0.27,0-0.404,0
		c0.073,0.344-0.158,0.382-0.406,0.405c-0.143,0.532-0.713,0.636-0.81,1.214c-0.189,0.864,0.578,0.771,1.216,0.81
		c0.41,0.264,0.418,0.932,1.215,0.811c0.221,0.589-0.474,2.093,0.404,2.024c0.406,0.002,0.482-0.327,0.811-0.405
		c0.867-0.887,1.26-2.249,2.43-2.834c0.273-0.941,1.345-1.084,1.619-2.025c0.558-0.521,0.4-1.759,0.404-2.834c0-0.54,0-1.08,0-1.62
		C105.422,46.569,105.153,46.569,104.883,46.569z"/>
	<path fill="#3A78CC" d="M52.644,53.453c-1.95-1.208-9.022-1.433-10.934,0c2.744,0.902,7.122,0.168,10.528,0.405
		C52.165,53.513,52.397,53.476,52.644,53.453z"/>
	<path fill="#3A78CC" d="M60.743,53.453c0.361,0.25,0.724,0.49,0.81,0c0.721,0.298,0.059,0.737,0,1.216
		c0.654,0.114,0.697-0.384,1.215-0.405c0.426-1.778,14.15,1.229,12.553-1.215c-2.744-0.901-7.122-0.167-10.529-0.405
		c-0.18-0.766,0.551-2.441-0.81-2.025c0-0.135,0-0.27,0-0.405c-0.27,0-0.54,0-0.81,0c-0.135,0-0.27,0-0.405,0
		C62.491,51.693,61.233,52.188,60.743,53.453z"/>
	<path fill="#3A78CC" d="M112.576,52.643c-1.721,0.302-4.25-0.73-6.074,0.81c0,0.271,0,0.541,0,0.811c1.607-0.441,4.98-1.025,5.67,0
		c0.765-0.045,0.281-1.339,1.215-1.215c0-0.676,0-1.35,0-2.025C112.843,51.291,112.632,51.889,112.576,52.643z"/>
	<path fill="#3875CC" d="M52.644,54.668c-0.394-0.011-0.314-0.495-0.405-0.811c-3.406-0.237-7.785,0.497-10.528-0.405
		c0.074,0.345-0.158,0.383-0.405,0.405c0,0.811,0,1.62,0,2.43c0.135,0,0.27,0,0.405,0c0-0.135,0-0.27,0-0.405
		c0.755-1.548,5.877-0.859,7.289-0.404c1.44,0.677,1.773-0.353,2.834,0.404C52.332,55.707,52.666,55.365,52.644,54.668z"/>
	<path fill="#3676CC" d="M101.239,55.883c0.479,0.196,0.918,0.432,1.215,0.81c1.102-1.186,4.886,0.004,7.693-0.405
		c0-0.405,0-0.81,0-1.215c-1.248,0.011-4.799,0.241-3.645-0.81c0-0.27,0-0.54,0-0.811c-0.393,0.012-0.314,0.496-0.404,0.811
		c-0.328-0.077-0.404-0.406-0.811-0.405c-0.326-0.349-1.109-0.24-1.215-0.81c-0.135,0-0.27,0-0.404,0
		C102.498,53.634,102.106,54.996,101.239,55.883z"/>
	<path fill="#3875CC" d="M87.469,54.668c0.777,1.113,4.254-0.474,4.051,1.619c0.684-0.936,2.065-1.174,3.645-1.215
		C94.85,53.14,88.356,53.361,87.469,54.668z"/>
	<path fill="#3676CC" d="M41.71,55.883c1.705,0.86,4.933,0.196,7.289,0.405c0-0.27,0-0.54,0-0.81
		C47.588,55.024,42.466,54.335,41.71,55.883z"/>
	<path fill="#3674CA" d="M91.52,56.288c-2.43,0-4.86,0-7.289,0c1.359,0.937,4.447,0.142,6.479,0.405
		c-0.069,1.149,1.369,0.79,0.811,2.43c0.577-0.097,0.682-0.667,1.215-0.81c0.143-1.343,1.213-1.757,2.024-2.43
		c0.077-0.328,0.407-0.404,0.405-0.81C93.584,55.115,92.203,55.352,91.52,56.288z"/>
	<path fill="#3674CA" d="M112.172,56.288c-0.676,0-1.351,0-2.025,0c-2.808,0.409-6.593-0.78-7.694,0.405
		c0.069,0.606-0.146,1.494,0.405,1.62c0.562-0.249,0.061-1.56,0.811-1.62c3.66-0.33,7.649,0.678,9.719-0.405c0-0.81,0-1.619,0-2.43
		C112.18,53.867,112.867,55.769,112.172,56.288z"/>
	<path fill="#FFFEFF" d="M55.073,56.693c-1.218,0.408-0.717-0.902-0.81-1.619c-1.089-0.279-0.782,0.837-1.215,1.215
		c0.174,0.636,1.273,0.346,0.81,1.619c0.085,0.49,0.45,0.25,0.81,0C54.691,57.39,55.188,57.347,55.073,56.693z"/>
	<path fill="#FFFCFF" d="M79.371,55.883c-0.238,0.843-0.852,1.309-1.216,2.024c-0.149,0.689,0.315,0.764,0.81,0.811
		c0.115,0.654-0.383,0.697-0.404,1.215c0.95-0.129,0.906-1.254,1.619-1.62c0.143-0.531,0.713-0.636,0.811-1.215
		C80.592,56.55,79.91,56.289,79.371,55.883z"/>
	<path fill="#3674CA" d="M41.71,55.883c0,0.136,0,0.271,0,0.405c0.136,0.736,7.152,0.736,7.289,0
		C46.643,56.08,43.415,56.744,41.71,55.883z"/>
	<path fill="#FDFEF3" d="M57.098,58.313c0.097-0.578,0.667-0.683,0.81-1.216c-0.605-0.02-2.309-1.579-2.025,0
		c-0.475-0.064-0.341-0.738-0.405-1.215c-0.394,0.012-0.314,0.496-0.405,0.811c0.114,0.654-0.382,0.697-0.405,1.215
		c0,0.135,0,0.27,0,0.405c1.939-0.39-0.211,1.819,0.81,1.619C56.429,59.803,56.385,58.679,57.098,58.313z"/>
	<path fill="#3572C9" d="M72.892,55.478c-0.765,0.045-0.281,1.34-1.215,1.215c-1.874,0.111-6.934-0.08-10.124,0
		c-1.021,0.798-1.314-0.193-3.239,0c-0.345-0.074-0.382,0.158-0.405,0.405c-0.143,0.532-0.713,0.637-0.81,1.215
		c0.907,2.198,5.73,0.479,7.694,1.62c0.968,0.246,2.938-0.509,3.239,0.405c0.135,0,0.27,0,0.405,0
		c-0.303-1.247,1.396-0.493,0.81-2.025c1.247-0.302,0.493,1.396,2.024,0.811c-0.035,0.574-0.067,1.146,0.405,1.215
		c1.169-0.586,1.563-1.948,2.43-2.835c-0.27,0-0.54,0-0.81,0C72.173,56.897,74,55.846,72.892,55.478z"/>
	<path fill="#3572C9" d="M103.668,56.693c-0.75,0.061-0.249,1.371-0.811,1.62c-0.551-0.126-0.336-1.014-0.405-1.62
		c-0.297-0.378-0.736-0.613-1.215-0.81c-0.328,0.077-0.403,0.406-0.81,0.405c-0.211,0.6-0.6,1.021-0.811,1.619
		c0.551,1.994,5.578-0.129,5.265,1.62c0.54,0,1.079,0,1.62,0c0-0.135,0-0.271,0-0.405c3.157,0.594,3.832-1.297,6.884-0.81
		c0-0.675,0-1.35,0-2.025C111.318,57.371,107.33,56.363,103.668,56.693z"/>
	<path fill="#2C71C7" d="M41.305,56.288c-0.135,0-0.27,0-0.405,0c0,1.89,0,3.78,0,5.67c0.135,0,0.27,0,0.405,0
		c0-1.216,0-2.43,0-3.645C41.305,57.638,41.305,56.963,41.305,56.288z"/>
	<path fill="#3170C9" d="M45.76,58.718c-0.671,0.678-2.377,0.322-3.645,0.405c0.066-0.471-0.089-0.721-0.405-0.811
		c0,1.08,0,2.159,0,3.239c0.308,1.178,3.337-0.367,3.645,0.811c-0.196,1.65,1.243,0.213,0.81-0.811
		C46.948,60.1,46.009,60.069,45.76,58.718z"/>
	<path fill="#3170C9" d="M97.594,59.528c-0.077,0.328-0.406,0.403-0.406,0.81c0.051,0.895,1.719,0.172,2.43,0.405
		c0.562-0.923,2.819-0.151,4.051-0.405c0.091-0.583,1.208-0.141,1.215-0.81c0.313-1.749-4.715,0.374-5.266-1.62
		c-0.135,0-0.27,0-0.404,0C98.848,58.622,98.307,59.162,97.594,59.528z"/>
	<path fill="#2C6BC9" d="M85.04,59.123c-0.864-0.189-0.771,0.578-0.81,1.215c-0.969,0.247-2.938-0.508-3.24,0.405
		c1.89,0,3.779,0,5.669,0c0.005-0.535,0.71-0.37,0.81-0.81c-0.406,0.001-0.481-0.328-0.81-0.405
		C86.789,60.242,84.391,60.25,85.04,59.123z"/>
	<path fill="#3270C3" d="M88.28,61.552c0.895,0.051,0.172,1.718,0.405,2.43c0.919-0.431,0.154-2.546,0.405-3.645
		c-0.676-0.173-1.949-1.779-2.43-0.811c0.328,0.077,0.404,0.407,0.81,0.405c-0.101,0.44-0.805,0.275-0.81,0.81
		c0,0.136,0,0.271,0,0.405c0.246,0.023,0.479,0.061,0.405,0.405c0.472,0.068,0.439,0.641,0.405,1.216
		C87.848,62.47,88.084,62.031,88.28,61.552z"/>
	<path fill="#FFFFFF" d="M92.329,60.742c-0.296-1.104,0.804-0.814,0.81-1.619c-0.395-0.011-0.314-0.495-0.404-0.81
		c-0.533,0.143-0.638,0.713-1.216,0.81c-0.179,0.36-0.355,0.725-0.81,0.81c-1.213,0.813-0.725,3.325-0.811,5.265
		c0.271,0,0.541,0,0.811,0c3.379-0.675,9.58-0.675,12.959,0c0.135,0,0.27,0,0.404,0c0-1.215,0-2.43,0-3.645
		c-0.344,0.074-0.382-0.158-0.404-0.405c-2.166-0.264-5.392,0.531-6.885-0.405C95.191,61.502,93.802,61.783,92.329,60.742z"/>
	<path fill="#2C6BC9" d="M103.668,60.337c-1.231,0.254-3.489-0.518-4.051,0.405c1.485,0,2.97,0,4.455,0
		C104.147,60.398,103.915,60.361,103.668,60.337z"/>
	<path fill="#4579C9" d="M78.561,61.147c2.16,0,4.32,0,6.479,0c0.405,0,0.81,0,1.215,0c0.136,0,0.271,0,0.405,0
		c0-0.135,0-0.27,0-0.405c-1.89,0-3.779,0-5.67,0C80.279,60.975,78.612,60.253,78.561,61.147z"/>
	<path fill="#4579C9" d="M99.617,60.742c-0.711-0.232-2.379,0.49-2.429-0.404c-0.345-0.074-0.382,0.157-0.405,0.404
		c1.493,0.938,4.719,0.142,6.885,0.405c0.675,0,1.35,0,2.024,0c0-0.135,0-0.27,0-0.405c-0.54,0-1.079,0-1.62,0
		C102.588,60.742,101.104,60.742,99.617,60.742z"/>
	<path fill="#FFFFFF" d="M67.222,65.197c0.27,0,0.54,0,0.81,0c0-1.35,0-2.699,0-4.05c-1.08,0-2.16,0-3.239,0
		c-1.359,0.937-4.448,0.143-6.479,0.405c-0.315-0.089-0.471-0.339-0.405-0.81c-0.712-0.233-2.379,0.489-2.429-0.405
		c0-0.135,0-0.27,0-0.405c-1.021,0.2,1.129-2.009-0.81-1.619c0-0.136,0-0.271,0-0.405c-0.36,0.249-0.724,0.489-0.81,0
		c-1.076,1.082-1.925-0.131-2.834-0.405c-0.328,0.077-0.403,0.406-0.81,0.405c-0.266,1.084-1.16,1.539-1.62,2.43
		c-0.077,0.327-0.406,0.403-0.405,0.81C45.963,68.414,63.362,62.853,67.222,65.197z"/>
	<path fill="#1651BF" d="M40.091,64.792c0-5.398,0-10.798,0-16.198c-0.135,0-0.27,0-0.405,0c0,5.669,0,11.338,0,17.008
		C40.079,65.591,40,65.106,40.091,64.792z"/>
	<path fill="#2C6BC9" d="M70.866,61.552c0-0.136,0-0.27,0-0.405c-0.636-1.48-0.605,0.94-1.619,0.405
		c-0.233,0.712,0.489,2.379-0.405,2.43c0,0.54,0,1.079,0,1.619c0.796,0.121,0.803-0.547,1.215-0.81
		c0.091,0.314,0.011,0.799,0.405,0.81C70.716,64.371,69.943,62.115,70.866,61.552z"/>
	<path fill="#769BD8" d="M70.866,61.147c0,0.136,0,0.271,0,0.405c0,1.35,0,2.7,0,4.05c0.135,0,0.27,0,0.405,0
		c0-0.135,0-0.27,0-0.405c0-1.35,0-2.699,0-4.05C71.136,61.147,71.002,61.147,70.866,61.147z"/>
	<path fill="#B1C0E4" d="M86.659,61.147c0,1.351,0,2.7,0,4.05c0,0.136,0,0.271,0,0.405c0.925-0.562,0.151-2.818,0.405-4.05
		C87.139,61.208,86.906,61.17,86.659,61.147z"/>
	<path fill="#2160C3" d="M70.462,65.602c-0.001,0.225,0.328,0.46,0.405,0c0-1.35,0-2.7,0-4.05
		C69.943,62.115,70.716,64.371,70.462,65.602z"/>
	<path fill="#FFFFFF" d="M86.254,65.197c0.136,0,0.271,0,0.405,0c0-1.35,0-2.699,0-4.05c-0.135,0-0.27,0-0.405,0
		C85.06,61.469,85.06,64.875,86.254,65.197z"/>
	<path fill="#2866C6" d="M47.784,60.337c-0.864-0.189-0.771,0.579-0.81,1.215c0.254,1.231-0.519,3.488,0.405,4.05
		C47.544,63.876,46.988,61.43,47.784,60.337z"/>
	<path fill="#FCFFFF" d="M105.287,65.197c-1.49-0.128-0.197-3.043-1.215-3.645c0,1.216,0,2.43,0,3.645
		C104.478,65.197,104.883,65.197,105.287,65.197z"/>
	<path fill="#185EC4" d="M48.594,66.007c6.209,0,12.418,0,18.627,0c0.471,0.065,0.721-0.09,0.81-0.405c-6.479,0-12.958,0-19.438,0
		C48.594,65.738,48.594,65.872,48.594,66.007z"/>
	<path fill="#225FC0" d="M68.437,60.742c0,1.62,0,3.24,0,4.86c0,0.136,0,0.27,0,0.405c0.135,0,0.27,0,0.405,0
		c0-0.136,0-0.27,0-0.405c0-0.54,0-1.08,0-1.62C68.595,63.013,69.35,61.044,68.437,60.742z"/>
	<path fill="#185EC4" d="M74.511,66.007c3.645,0,7.289,0,10.934,0c0.314-0.091,0.799-0.011,0.81-0.405c-4.994,0-9.989,0-14.982,0
		C71.573,66.515,73.543,65.76,74.511,66.007z"/>
	<path fill="#185EC4" d="M90.304,66.007c0.136,0,0.271,0,0.405,0c4.32,0,8.639,0,12.959,0c0.574,0.034,1.146,0.066,1.215-0.405
		c-4.859,0-9.719,0-14.578,0C90.304,65.738,90.304,65.872,90.304,66.007z"/>
	<path fill="#316AC7" d="M67.222,66.007c-6.209,0-12.418,0-18.627,0C53.861,66.681,61.956,66.681,67.222,66.007z"/>
	<path fill="#2861BD" d="M114.196,58.313c0.27-5.4-0.537-11.877,0.406-16.604c0-0.54,0-1.08,0-1.619c0-0.135,0-0.27,0-0.405
		c-0.222-0.588,0.473-2.093-0.406-2.024c0.063,2.18-0.635-0.972-0.809,0.405c0,1.485,0,2.969,0,4.454c0,0.675,0,1.35,0,2.024
		c0,0.675,0,1.351,0,2.025c0,0.81,0,1.62,0,2.43c0,0.675,0,1.35,0,2.024c0,0.674,0,1.35,0,2.024c0,0.271,0,0.54,0,0.81
		c0,0.811,0,1.62,0,2.43c0,0.676,0,1.351,0,2.025c0,1.215,0,2.429,0,3.645c0,0.136,0,0.27,0,0.405c0,0.81,0,1.619,0,2.429
		c-0.285,1.875-1.335,2.985-1.62,4.86c0.315,0.36,0.435,0.914,0.405,1.619c0.135,0,0.27,0,0.404,0
		c1.023-1.406,1.337-3.523,2.025-5.264c0-0.54,0-1.08,0-1.62C113.667,63.162,114.459,60.21,114.196,58.313z"/>
	<path fill="#2968C3" d="M46.165,66.412c0-0.54,0-1.08,0-1.62c-0.475,0.065-0.342,0.739-0.405,1.216
		c-1.947-1.439-3.966,0.936-4.859-0.405c0.245,0.835-0.653,2.813,0.81,2.429c0,0.136,0,0.271,0,0.406
		c1.164-0.457,3.157-0.082,4.049-0.811C44.938,67.75,45.843,66.457,46.165,66.412z"/>
	<path fill="#2968C3" d="M84.23,67.222c-4.185,0-8.369,0-12.553,0c-0.841,0.452-0.858,0.436-0.405-0.406c4.319,0,8.639,0,12.959,0
		c-0.726-1.171-7.656,0.372-9.719-0.81c-0.968-0.247-2.938,0.509-3.239-0.405c-0.135,0-0.27,0-0.405,0
		c-0.077,0.46-0.406,0.225-0.405,0c-0.394-0.011-0.314-0.495-0.405-0.81c-0.412,0.263-0.418,0.931-1.215,0.81
		c0,0.136,0,0.271,0,0.405c0,0.271,0,0.54,0,0.81c0.472,0.068,0.439,0.641,0.405,1.215c1.486-0.928,2.146-0.025,5.264-0.404
		c3.24,0,6.479,0,9.719,0C84.23,67.492,84.23,67.357,84.23,67.222z"/>
	<path fill="#316AC7" d="M84.23,66.817c0,0.136,0,0.27,0,0.405c0,0.135,0,0.27,0,0.405c0.325-0.215,0.657-0.423,1.215-0.405
		c-0.249-0.361-0.489-0.725,0-0.811c0-0.135,0-0.27,0-0.404c-3.645,0-7.289,0-10.934,0C76.574,67.188,83.504,65.645,84.23,66.817z"
		/>
	<path fill="#2C6BC9" d="M68.437,66.007c-5.008,1.875-13.488,0.279-19.843,0.81c4.726,0.943,11.203,0.136,16.603,0.405
		c1.224,0.125,3.149-0.45,3.24,0.81c0.472-0.067,0.44-0.64,0.405-1.215c0-0.271,0-0.54,0-0.81
		C68.707,66.007,68.572,66.007,68.437,66.007z"/>
	<path fill="#2866C6" d="M110.957,69.247c1.35-1.319-3.559-0.604-4.455-2.024c-1.01,0.107-1.352,1.52-2.43,0.404
		c-3.781,0.943-9.312,0.137-13.768,0.405c0-0.271,0-0.54,0-0.81c-0.884,0.073-1.288-0.332-1.215-1.215
		c-0.6-0.211-1.021-0.6-1.62-0.811c0-0.81,0-1.619,0-2.429c0.034-0.575,0.067-1.147-0.405-1.216c-0.254,1.231,0.52,3.488-0.405,4.05
		c-0.135,0-0.27,0-0.405,0c-0.011,0.395-0.495,0.314-0.81,0.405c0,0.136,0,0.27,0,0.405c1.278,0.629,2.415-0.491,2.43,0.81
		c-0.96-0.334-1.865,0.571-0.405,0.405c-3.379,0.675-9.58,0.675-12.958,0c-3.118,0.38-3.778-0.523-5.264,0.405
		c0.034-0.574,0.067-1.146-0.405-1.215c0.035,0.574,0.067,1.146-0.405,1.215c-6.489-0.53-15.104,1.066-20.248-0.81
		c-0.471,0.065-0.721-0.09-0.81-0.405c-0.575,0.034-1.146,0.066-1.215-0.405c-0.322,0.045-1.228,1.339-0.405,1.215
		c-0.892,0.729-2.885,0.354-4.049,0.811c-0.314,0.36-0.436,0.914-0.405,1.619c0.439-0.1,0.275-0.805,0.81-0.81
		C63.478,69.268,88.254,69.23,110.957,69.247z"/>
	<path fill="#276AC6" d="M104.073,67.626c-4.475-0.25-9.963,0.514-13.769-0.404c0,0.27,0,0.539,0,0.809
		C94.76,67.763,100.291,68.57,104.073,67.626z"/>
	<path fill="#FBFFFB" d="M114.602,63.982c0,0.135,0,0.271,0,0.405c0,0.54,0,1.08,0,1.62c-0.312,1.525,0.494,1.936,0.404,3.239
		c0.328-0.077,0.404-0.407,0.811-0.405c-0.42-1.065-0.484-2.485-0.406-4.05c0.035-0.575,0.068-1.146-0.404-1.216
		C114.983,63.824,114.946,64.056,114.602,63.982z"/>
	<path fill="#2565C2" d="M64.792,71.271c-4.187,0.269-9.447-0.537-12.958,0.405c2.159,0,4.319,0,6.479,0
		C60.613,70.996,63.712,73.382,64.792,71.271z"/>
	<path fill="#2463C4" d="M58.313,72.486c3.239,0,6.479,0,9.719,0c0.18-1.17,3.06,0.36,3.24-0.81
		c-1.359-0.936-4.448-0.142-6.479-0.405c-1.081,2.111-4.18-0.275-6.479,0.405c-1.363,0.673-5.521,0.673-6.885,0
		c-0.842,0.887-1.309-0.354-2.024,0.405c-0.074,0.344,0.158,0.383,0.405,0.405c0.405,0,0.81,0,1.215,0
		C53.453,72.486,55.884,72.486,58.313,72.486z"/>
	<path fill="#2565C2" d="M93.139,72.082c0.562-0.924,2.818-0.152,4.05-0.406c-1.358-0.936-4.448-0.141-6.479-0.404
		C90.325,72.735,92.304,71.836,93.139,72.082z"/>
	<path fill="#2565C2" d="M104.073,72.082c0.135,0,0.27,0,0.405,0c0.36-0.18,0.724-0.356,0.81-0.811
		c-1.496,0.259-4.033-0.524-4.859,0.405c1.08,0,2.16,0,3.24,0C104.012,71.602,104.049,71.834,104.073,72.082z"/>
	<path fill="#FEFFFC" d="M40.496,71.271c-0.474,0.606-0.504,1.656-1.215,2.025c0.296,0.721,0.737,0.058,1.215,0
		C40.253,72.575,41.682,71.615,40.496,71.271z"/>
	<path fill="#225FC0" d="M106.098,73.296c0.074-0.345-0.158-0.383-0.406-0.406c-1.809,0.217-2.83,1.219-5.264,0.811
		c-1.08,0-2.159,0-3.239,0c-2.575,0.28-3.904-0.686-6.479-0.405c-0.969,0.247-2.938-0.508-3.239,0.405
		c0.969,0.246,2.938-0.508,3.239,0.405c2.16,0,4.32,0,6.479,0s4.319,0,6.479,0c1.145,0.335,1.049-0.571,2.024-0.405
		C105.617,73.357,105.851,73.32,106.098,73.296z"/>
	<path fill="#2968C3" d="M49.809,74.916c0.315-0.09,0.471-0.34,0.405-0.81c-0.27,0-0.54,0-0.81,0
		c-0.939,0.13-1.555-0.065-2.025-0.405c-1.574,0.584,0.813,2.607,0,2.43c0.089,0.315,0.339,0.471,0.81,0.404
		C48.555,75.822,49.095,75.281,49.809,74.916z"/>
	<path fill="#2866C6" d="M97.188,74.511c1.08,0,2.16,0,3.24,0s2.159,0,3.239,0c0-0.136,0-0.271,0-0.406c-2.159,0-4.32,0-6.479,0
		C97.188,74.241,97.188,74.375,97.188,74.511z"/>
	<path fill="#2665C4" d="M55.073,74.511c0-0.136,0-0.271,0-0.406c-1.62,0-3.239,0-4.859,0c0.066,0.471-0.089,0.721-0.405,0.811
		c0,0.135,0,0.27,0,0.404C51.394,74.88,52.779,74.241,55.073,74.511z"/>
	<path fill="#3D72C5" d="M53.453,75.726c1.35,0,2.7,0,4.05,0c2.233-1.383-1.572-0.23-2.024-1.215c-0.135,0-0.27,0-0.405,0
		c-2.294-0.271-3.68,0.369-5.264,0.809c0.089,0.316,0.339,0.472,0.81,0.406C51.082,74.611,56.532,74.611,53.453,75.726z"/>
	<path fill="#487FD3" d="M62.363,74.916c-1.112-0.16-5.438,0.13-2.429,0.405c1.08,0,2.159,0,3.239,0c0-0.135,0-0.271,0-0.405
		C62.903,74.916,62.633,74.916,62.363,74.916z"/>
	<path fill="#5087D0" d="M63.173,75.321c0.54,0,1.08,0,1.62,0c1.08,0,2.16,0,3.239,0c-0.075-0.6-0.979-0.371-1.62-0.405
		c-1.08,0-2.159,0-3.239,0C63.173,75.05,63.173,75.186,63.173,75.321z"/>
	<path fill="#608ED2" d="M70.056,74.511c-0.675,0-1.35,0-2.024,0c-0.54,0-1.08,0-1.62,0c0,0.135,0,0.27,0,0.404
		c0.641,0.033,1.545-0.195,1.62,0.405c0.969,0.247,2.938-0.509,3.24,0.405c1.08,0,2.159,0,3.239,0
		C74.61,73.738,70.591,75.866,70.056,74.511z"/>
	<path fill="#6299D9" d="M74.916,74.916c1.226,0.935,4.177,0.143,6.074,0.405c0.605-0.069,1.494,0.146,1.619-0.405
		c-0.539,0-1.079,0-1.619,0C78.965,74.916,76.941,74.916,74.916,74.916z"/>
	<path fill="#5087D0" d="M86.659,75.321c1.351,0,2.7,0,4.05,0c0.541,0,1.08,0,1.62,0c0-0.271,0-0.54,0-0.81c-1.216,0-2.43,0-3.645,0
		C88.867,75.638,86.478,74.193,86.659,75.321z"/>
	<path fill="#3D72C5" d="M97.188,75.726c1.08,0,2.16,0,3.24,0c0-0.136,0-0.271,0-0.406c0-0.135,0-0.27,0-0.404
		C99.412,75.25,96.942,74.128,97.188,75.726z"/>
	<path fill="#316AC7" d="M50.619,75.726c0.405,0,0.81,0,1.215,0c0.54,0,1.08,0,1.619,0C56.532,74.611,51.082,74.611,50.619,75.726z"
		/>
	<path fill="#3770CD" d="M100.428,75.321c0,0.136,0,0.271,0,0.405c0.135,0,0.27,0,0.405,0c0.944,0,1.89,0,2.835,0
		c0.249-0.361,0.489-0.725,0-0.81C102.538,75.839,101.667,74.507,100.428,75.321z"/>
	<path fill="#2861BD" d="M97.188,75.726c-0.809,0-1.619,0-2.43,0c-1.35,0-2.699,0-4.049,0c-2.16,0-4.32,0-6.479,0
		c-1.079,0-2.159,0-3.239,0c-1.096,0.672-4.979,0.672-6.075,0c-0.135,0-0.27,0-0.405,0c-1.08,0-2.16,0-3.239,0
		c-2.16,0-4.32,0-6.479,0c-1.62,0-3.24,0-4.86,0c-0.81,0-1.619,0-2.429,0c-1.35,0-2.7,0-4.05,0c-0.54,0-1.08,0-1.619,0
		c0.18,1.169,3.06-0.361,3.239,0.809c1.08,0,2.16,0,3.24,0c3.378-0.674,9.58-0.674,12.958,0c4.319,0,8.639,0,12.959,0
		c3.379-0.674,9.58-0.674,12.958,0c1.08,0,2.159,0,3.239,0c-0.002-0.406,0.328-0.481,0.405-0.809c-0.136,0-0.271,0-0.405,0
		C99.348,75.726,98.269,75.726,97.188,75.726z"/>
	<path fill="#285EC3" d="M105.287,74.916c-0.635,0.174-0.346,1.274-1.619,0.811c-0.945,0-1.891,0-2.835,0
		c-0.077,0.327-0.407,0.403-0.405,0.809c1.1,0.252,3.215-0.514,3.645,0.406c1.256,0.04,1.935-0.495,2.834-0.811
		C106.794,75.298,105.825,75.323,105.287,74.916z"/>
	<path fill="#2565C2" d="M55.073,76.535c-0.18-1.17-3.06,0.36-3.239-0.809c-0.405,0-0.81,0-1.215,0
		c-0.471,0.065-0.72-0.09-0.81-0.406c0-0.135,0-0.27,0-0.404c-0.714,0.365-1.254,0.906-1.62,1.619
		c0.479,0.467,1.432,0.459,2.429,0.405C51.313,76.013,53.71,76.792,55.073,76.535z"/>
	<path fill="#1651BF" d="M58.313,76.535c-1.08,0-2.16,0-3.24,0c-1.363,0.257-3.761-0.521-4.455,0.406c0.27,0,0.54,0,0.81,0
		c2.294,0,4.59,0,6.885,0C58.313,76.805,58.313,76.67,58.313,76.535z"/>
	<path fill="#1454B8" d="M100.428,76.535c-1.08,0-2.159,0-3.239,0c-4.319,0-8.639,0-12.958,0c-4.32,0-8.639,0-12.959,0
		s-8.639,0-12.958,0c0,0.136,0,0.271,0,0.406c14.848,0,29.697,0,44.544,0c0.404,0,0.811,0,1.215,0
		C103.643,76.021,101.528,76.787,100.428,76.535z"/>
	<path fill="#91ABDC" d="M51.429,76.941c0,0.135,0,0.27,0,0.404c1.755,0,3.51,0,5.265,0c5.939,0,11.878,0,17.818,0
		c9.45,0,18.897,0,28.346,0c0-0.135,0-0.27,0-0.404c-14.848,0-29.696,0-44.544,0C56.019,76.941,53.723,76.941,51.429,76.941z"/>
	<path fill="#F9FFFF" d="M51.429,77.345c0-0.135,0-0.27,0-0.405c-0.27,0-0.54,0-0.81,0c-0.998,0.054-1.951,0.062-2.429-0.405
		c-0.471,0.066-0.721-0.09-0.81-0.404c-0.654,0.113-0.697-0.384-1.215-0.405c-0.143,0.531-0.713,0.636-0.81,1.215
		c-0.135,0-0.27,0-0.405,0c0.075,0.344-0.158,0.382-0.405,0.405c0,0.135,0,0.27,0,0.404h6.479
		C51.047,77.503,51.085,77.271,51.429,77.345z"/>
	<path fill="#FFFFFF" d="M51.429,77.345c-0.344-0.074-0.382,0.157-0.405,0.405h5.669c0-0.136,0-0.271,0-0.405
		C54.939,77.345,53.184,77.345,51.429,77.345z"/>
	<path fill="#FFFFFF" d="M102.858,77.345c-9.449,0-18.897,0-28.347,0c0,0.135,0,0.27,0,0.405h29.966
		C104.353,77.201,103.463,77.415,102.858,77.345z"/>
	<path fill="#FFFEFF" d="M74.511,26.322c2.16,0,4.319,0,6.479,0c0-0.135,0-0.27,0-0.405H68.032
		C69.391,26.853,72.48,26.059,74.511,26.322z"/>
	<path fill="#FFFEFF" d="M84.23,46.569c-3.645,0-7.289,0-10.934,0c0,0.135,0,0.27,0,0.405C76.809,46.707,81.393,47.511,84.23,46.569
		z"/>
	<path fill="#FFFEFF" d="M56.694,77.345c0,0.135,0,0.27,0,0.405h17.818c0-0.136,0-0.271,0-0.405
		C68.572,77.345,62.633,77.345,56.694,77.345z"/>
	<path fill="#2463C4" d="M71.272,72.89c4.319,0,8.639,0,12.959,0c0.41-1.895-3.043,0.074-3.24-1.215
		c-1.229-0.673-5.25-0.673-6.479,0C74.314,72.964,70.861,70.996,71.272,72.89z M80.99,72.082c-1.359,0.936-4.448,0.141-6.479,0.404
		C75.87,71.55,78.959,72.343,80.99,72.082z"/>
	<path fill="#FCFFFF" d="M57.098,26.322c0.066,0.475,0.739,0.342,1.215,0.405c5.399,0,10.798,0,16.198,0c0-0.135,0-0.271,0-0.405
		c-2.031-0.263-5.12,0.531-6.479-0.405h-8.099C59.759,26.822,57.938,26.081,57.098,26.322z"/>
	<path fill="#FCFFFF" d="M91.114,26.727c-2.568-0.941-6.881-0.138-10.123-0.405c0,0.135,0,0.27,0,0.405
		C84.365,26.727,87.74,26.727,91.114,26.727z"/>
	<path fill="#FEFFF9" d="M58.313,61.552c1.359-0.936,4.447-0.143,6.479-0.405c1.08,0,2.16,0,3.239,0
		c-2.569-0.941-6.881-0.138-10.124-0.405C57.843,61.213,57.998,61.463,58.313,61.552z"/>
	<path fill="#4A86D3" d="M110.957,38.875c-0.303,0.887,1.111,1.879,0.81,0.405c0.394,0.011,0.314,0.496,0.405,0.81
		c0.394,0.011,0.314,0.495,0.404,0.81c0.895-0.05,0.173-1.718,0.406-2.429c-0.471-0.066-0.721,0.089-0.811,0.405
		c-0.475-0.065-0.342-0.738-0.404-1.215C111.184,37.751,111.625,38.869,110.957,38.875z"/>
	<path fill="#3674CA" d="M70.056,74.511c1.485,0,2.97,0,4.455,0c2.16,0,4.319,0,6.479,0c1.484,0,2.969,0,4.453,0
		c0.676,0,1.351,0,2.025,0c0-0.136,0-0.271,0-0.406c-6.479,0-12.958,0-19.438,0c0,0.136,0,0.271,0,0.406
		C68.707,74.511,69.382,74.511,70.056,74.511z"/>
	<path fill="#FFFCFB" d="M90.709,49.809c1.229-0.673,5.25-0.673,6.479,0c0.345,0.074,0.383-0.158,0.406-0.405
		c0.074-0.344-0.158-0.382-0.406-0.405c-2.031-0.263-5.119,0.531-6.479-0.405c-0.136,0-0.27,0-0.406,0c0,0.54,0,1.08,0,1.62
		c0.137,0,0.271,0,0.406,0C90.709,50.079,90.709,49.944,90.709,49.809z"/>
	<path fill="#659DDE" d="M55.073,29.966c0.069-0.878-1.437-0.184-2.024-0.405c0-0.135,0-0.27,0-0.405c-0.945,0-1.89,0-2.834,0
		c-0.405,0-0.81,0-1.215,0C49.518,30.933,53.237,29.508,55.073,29.966z"/>
	<path fill="#276AC6" d="M65.198,67.222c-4.738,0.686-12.266,0.658-17.008,0c5.143,1.875,13.758,0.279,20.248,0.809
		C68.346,66.772,66.422,67.347,65.198,67.222z"/>
	<path fill="#2C6BC9" d="M66.412,74.511c0.54,0,1.08,0,1.62,0c0-0.136,0-0.271,0-0.406c-1.08,0-2.16,0-3.239,0
		c-3.24,0-6.479,0-9.719,0c0,0.136,0,0.271,0,0.406c0.135,0,0.27,0,0.405,0c2.294,0,4.589,0,6.884,0
		C63.713,74.511,65.063,74.511,66.412,74.511z"/>
	<path fill="#4579C9" d="M62.363,74.916c0-0.135,0-0.27,0-0.404c-2.294,0-4.589,0-6.884,0c0.452,0.984,4.257-0.168,2.024,1.215
		c0.81,0,1.62,0,2.429,0c0-0.136,0-0.271,0-0.406C56.924,75.045,61.25,74.755,62.363,74.916z"/>
	<path fill="#3676CC" d="M83.824,53.858c-0.143,0.532-0.713,0.638-0.81,1.216c0.971-0.16-0.224,1.844,1.216,1.215
		c2.429,0,4.859,0,7.289,0c0.203-2.094-3.273-0.507-4.051-1.62c-0.27,0-0.539,0-0.81,0c-0.011-0.394-0.495-0.314-0.81-0.405
		c0-0.81,0-1.619,0-2.43C85.106,52.44,84.84,53.524,83.824,53.858z"/>
	<path fill="#D4DCF2" d="M114.602,40.09c0,0.54,0,1.08,0,1.619c0,5.535,0,11.069,0,16.604c0,1.89,0,3.78,0,5.669
		c0.344,0.074,0.382-0.158,0.404-0.405c0-1.755,0-3.509,0-5.264C114.737,52.373,115.545,45.356,114.602,40.09z"/>
	<path fill="#FFFCFF" d="M58.313,44.139c-3.375,0-6.75,0-10.124,0c0,0.135,0,0.27,0,0.405c3.375,0,6.749,0,10.124,0
		C58.313,44.409,58.313,44.274,58.313,44.139z"/>
	<path fill="#FFFEFF" d="M103.668,46.569c-4.455,0-8.91,0-13.365,0c0,0.135,0,0.27,0,0.405c0.137,0,0.271,0,0.406,0
		C94.896,46.707,100.156,47.512,103.668,46.569z"/>
	<path fill="#FBFFFB" d="M48.19,43.735c0,0.135,0,0.27,0,0.405c3.375,0,6.749,0,10.124,0C55.744,43.198,51.432,44.001,48.19,43.735z
		"/>
	<path fill="#C7DBF3" d="M104.883,46.569c0.27,0,0.539,0,0.809,0c0-0.135,0-0.27,0-0.405c-0.27,0-0.539,0-0.809,0
		c-4.725,0-9.449,0-14.174,0c-0.345-0.075-0.383,0.158-0.406,0.405c4.455,0,8.91,0,13.365,0
		C104.073,46.569,104.478,46.569,104.883,46.569z"/>
	<path fill="#C3DBEC" d="M67.222,65.197c-6.479,0-12.958,0-19.438,0c0,0.136,0,0.271,0,0.405c0.27,0,0.54,0,0.81,0
		c6.479,0,12.958,0,19.438,0c0-0.135,0-0.27,0-0.405C67.762,65.197,67.492,65.197,67.222,65.197z"/>
	<path fill="#C3DBEC" d="M86.254,65.197c-0.539,0-1.079,0-1.619,0c-3.375,0-6.75,0-10.124,0c-1.08,0-2.16,0-3.239,0
		c0,0.136,0,0.271,0,0.405c4.994,0,9.988,0,14.982,0c0.136,0,0.271,0,0.405,0c0-0.135,0-0.27,0-0.405
		C86.525,65.197,86.39,65.197,86.254,65.197z"/>
	<path fill="#C3DBEC" d="M104.073,65.197c-0.135,0-0.27,0-0.404,0c-4.32,0-8.64,0-12.959,0c-0.27,0-0.54,0-0.811,0
		c-0.074,0.345,0.158,0.383,0.405,0.405c4.86,0,9.72,0,14.579,0c0.27,0,0.539,0,0.809,0c0-0.135,0-0.27,0-0.405
		c-0.135,0-0.27,0-0.404,0C104.883,65.197,104.478,65.197,104.073,65.197z"/>
	<path fill="#285EC3" d="M58.313,76.535c4.319,0,8.639,0,12.958,0C67.893,75.861,61.692,75.861,58.313,76.535z"/>
	<path fill="#4085CE" d="M41.305,46.569c0-1.485,0-2.969,0-4.455c-0.135,0-0.27,0-0.405,0c0,2.159,0,4.319,0,6.479
		c0.135,0,0.27,0,0.405,0C41.305,47.918,41.305,47.244,41.305,46.569z"/>
	<path fill="#225CBA" d="M92.735,28.346c0,0.135,0,0.27,0,0.405c0.404,0,0.809,0,1.215,0c2.159,0,4.319,0,6.479,0
		c0-0.271,0-0.54,0-0.811c-1.08,0-2.159,0-3.239,0C96.496,28.868,94.098,28.09,92.735,28.346z"/>
	<path fill="#285EC3" d="M40.496,38.875c-0.077-0.46-0.407-0.226-0.405,0c0,3.239,0,6.479,0,9.719c0.135,0,0.27,0,0.405,0
		C40.496,45.354,40.496,42.115,40.496,38.875z"/>
	<path fill="#91ABDC" d="M39.686,40.09c-0.675,7.56-0.675,17.951,0,25.512c0-5.67,0-11.339,0-17.008
		C39.686,45.759,39.686,42.925,39.686,40.09z"/>
	<path fill="#4A86D3" d="M64.792,39.28c-4.47-0.417-12.804-1.198-16.603,0.405c0.135,0,0.27,0,0.405,0
		C53.186,38.742,59.527,39.549,64.792,39.28z"/>
	<path fill="#2C64C8" d="M40.9,48.594c0-2.16,0-4.32,0-6.479c0-1.08,0-2.159,0-3.239c-0.135,0-0.27,0-0.405,0
		c0,3.239,0,6.479,0,9.719C40.631,48.594,40.765,48.594,40.9,48.594z"/>
</g>
</svg>
